/* XPM */
static char *bdc085d4cd92442bc22ff3d92727c23dKyU4Uql5Y91DQMdJ[] = {
/* columns rows colors chars-per-pixel */
"64 64 256 2 ",
"   c #141306",
".  c #2D140A",
"X  c #312D0D",
"o  c #29172A",
"O  c #0E2E30",
"+  c #333030",
"@  c #0C1923",
"#  c #51130B",
"$  c #700C06",
"%  c #4E300E",
"&  c #712C0F",
"*  c #57162F",
"=  c #741230",
"-  c #4D382B",
";  c #6C2D2E",
":  c #344E38",
">  c #264E1F",
",  c #754D13",
"<  c #514C34",
"1  c #6F5330",
"2  c #716B35",
"3  c #525A1E",
"4  c #313350",
"5  c #312F6E",
"6  c #232361",
"7  c #4A354D",
"8  c #44386D",
"9  c #6E1B51",
"0  c #12494C",
"q  c #305051",
"w  c #34536B",
"e  c #346C70",
"r  c #216461",
"t  c #59584A",
"y  c #5B5857",
"u  c #4C4F51",
"i  c #6B5250",
"p  c #546957",
"a  c #6F6A51",
"s  c #4A5470",
"d  c #6D596C",
"f  c #506F6F",
"g  c #6D726F",
"h  c #910F0D",
"j  c #B2120F",
"k  c #8C2B11",
"l  c #90302C",
"z  c #AE2F2D",
"x  c #A41B21",
"c  c #CF1512",
"v  c #CE1629",
"b  c #C92D2F",
"n  c #E11F21",
"m  c #945011",
"M  c #B5560F",
"N  c #91512F",
"B  c #AC5530",
"V  c #916B37",
"C  c #B06931",
"Z  c #B27017",
"A  c #D46F19",
"S  c #F27215",
"D  c #D2722C",
"F  c #EE7528",
"G  c #CB562C",
"H  c #8F0C50",
"J  c #A6045A",
"K  c #8D2F4C",
"L  c #950D6C",
"P  c #A9066E",
"I  c #9E3361",
"U  c #C73349",
"Y  c #D52E56",
"T  c #8E4E52",
"R  c #AE5350",
"E  c #8F734F",
"W  c #AF724D",
"Q  c #8E5076",
"!  c #89746A",
"~  c #B27066",
"^  c #A35672",
"/  c #D2724B",
"(  c #DC5D5A",
")  c #568831",
"_  c #738D71",
"`  c #5E925F",
"'  c #79CB64",
"]  c #94893B",
"[  c #AA9F36",
"{  c #F78915",
"}  c #FFA418",
"|  c #FE9929",
" . c #FB9A37",
".. c #F68E2E",
"X. c #F9A439",
"o. c #F7A32D",
"O. c #D58F37",
"+. c #918C56",
"@. c #AD8852",
"#. c #868677",
"$. c #958D70",
"%. c #AD9272",
"&. c #B3A975",
"*. c #9BA965",
"=. c #D4924D",
"-. c #EF954F",
";. c #D2AF4B",
":. c #F2A34E",
">. c #C99473",
",. c #EE956B",
"<. c #D3AD74",
"1. c #F0AC70",
"2. c #94C661",
"3. c #D8CB61",
"4. c #D8C73B",
"5. c #2B3D85",
"6. c #4A3A87",
"7. c #30518F",
"8. c #386E87",
"9. c #3154AB",
"0. c #2E61AB",
"q. c #534E8F",
"w. c #73548E",
"e. c #55738C",
"r. c #70758B",
"t. c #6C73AC",
"y. c #4F61A8",
"u. c #546FC3",
"i. c #972487",
"p. c #877490",
"a. c #8D73A7",
"s. c #9D588E",
"d. c #28928A",
"f. c #508D8F",
"g. c #699597",
"h. c #728C8F",
"j. c #75AB95",
"k. c #5197AD",
"l. c #788CA4",
"z. c #779AA9",
"x. c #7A9AB5",
"c. c #6A94AC",
"v. c #4DA9AD",
"b. c #79A6AA",
"n. c #7BA6B6",
"m. c #72B1B1",
"M. c #40AC92",
"N. c #73C6BA",
"B. c #73B4CA",
"V. c #6FA4CB",
"C. c #58CED0",
"Z. c #79C5CA",
"A. c #77D5DA",
"S. c #6ECFD2",
"D. c #74E6D9",
"F. c #79D9E7",
"G. c #7ADDF5",
"H. c #6CD5E8",
"J. c #5CE5E7",
"K. c #6DE5EC",
"L. c #6AE8E8",
"P. c #74E4EB",
"I. c #7BE4EC",
"U. c #74EAEC",
"Y. c #78E6E6",
"T. c #6AEAF6",
"R. c #75E4F3",
"E. c #7BE4F2",
"W. c #76E8F6",
"Q. c #74F3F2",
"!. c #5ADBE7",
"~. c #918E91",
"^. c #AC948A",
"/. c #93A997",
"(. c #AFAB92",
"). c #899BA9",
"_. c #8A9CB5",
"`. c #939CB6",
"'. c #9296A9",
"]. c #A798AC",
"[. c #86A5AB",
"{. c #87A5B7",
"}. c #92A4B7",
"|. c #87B8B8",
" X c #91B4AE",
".X c #ADB2B1",
"XX c #CDAF8A",
"oX c #EAB78D",
"OX c #CEA4A4",
"+X c #91C8B6",
"@X c #B2CFB3",
"#X c #9EC498",
"$X c #D5C9B4",
"%X c #E7CDB2",
"&X c #DBD599",
"*X c #8F97C9",
"=X c #87A8C4",
"-X c #92B4C8",
";X c #B0AFCF",
":X c #A8AEE3",
">X c #CAB8CB",
",X c #CBB9E2",
"<X c #89C6CB",
"1X c #87C7D8",
"2X c #98C7D5",
"3X c #87D8D9",
"4X c #94D2CD",
"5X c #B7DCD4",
"6X c #A8D2CF",
"7X c #89E4D9",
"8X c #98E7D9",
"9X c #93EED7",
"0X c #A7E9D9",
"qX c #B8E6D7",
"wX c #A6F8DD",
"eX c #B1E8CE",
"rX c #86DAE6",
"tX c #8ED5EE",
"yX c #AFD4EA",
"uX c #8CE4E5",
"iX c #88E8E9",
"pX c #94E3E3",
"aX c #98E9E9",
"sX c #9BF6E9",
"dX c #86E9F5",
"fX c #96E7F7",
"gX c #97F4F9",
"hX c #88F3F0",
"jX c #A7EAE8",
"kX c #B6E7E6",
"lX c #A8F5E7",
"zX c #B9F6EA",
"xX c #A7EBF6",
"cX c #B9E8F8",
"vX c #A9F7F6",
"bX c #B4FDFD",
"nX c #BCFEFE",
"mX c #B7F8F7",
"MX c #C6D7C8",
"NX c #CED1CD",
"BX c #EAD6D5",
"VX c #D4E5D3",
"CX c #E9EDD2",
"ZX c #D5D9EB",
"AX c #CBD6EF",
"SX c #ECD7EF",
"DX c #C6E5FA",
"FX c #D7E8FB",
"GX c #C4FEFD",
"HX c #CAFDFE",
"JX c #C5F6F9",
"KX c #CDF0EC",
"LX c #E8FCF8",
"PX c #FEFDFD",
"IX c #F9F8FA",
"UX c #F3F1ED",
/* pixels */
"iXiXpX7X7X3X8XiXY.K.T.T.P.P.E.gXjX0XqX@X$XCXAXyX.X/.#X+X-XyXFXkXkXZXSXDXyXG.B.A.4X|.>XSXMXeXjXgXaX7XD.L.U.W.R.P.Q.R.P.Y.rXiXdXE.",
"iXfXpXaXlXaXpXiXY.K.U.T.P.P.E.fXpXjX5X.X#XVXAXyX.X X#X+X;XyXDXzXqXKXZXZXyXG.Z.<X4X XNXSXMX0XjXgXaXuXY.L.T.W.R.R.L.L.I.I.rXF.F.H.",
"gXiXaXvXbXbXsXiXiXU.K.R.R.E.E.iX8X0X5X/.&.NXDX2X+X/.j.+X-X5XDXcXkXAXAXZXyX4X X@X(.(.%XBXAX6XjXsXsXuXD.L.K.R.G.R.L.U.hXgXhXfXhXhX",
"gXuXaXbXGXbXsXuXhXY.K.K.R.E.E.uXjX0XMX/.$.MXmX1X+Xj.N.Z.2XyXDXDXcXDXZXZXMX(.(.XX<.<.oXBXKX0X0XlXaXuXK.L.W.W.E.R.K.K.dXhXaXfXgXgX",
"aXrXxXnXGXbXvXpXhXI.K.U.R.I.dXuXjX0X5X(.$.@XxXrX4X+XN.+X4XyXDXAXDXDXFXBX&X&.>.:.:.;.1.&XAXkXeXwXjXiXY.K.K.W.E.R.U.P.iXhXaXtXrXY.",
"rXuXvXGXGXnXmXaXiXdXP.R.R.E.F.iXlXeX$X/.%.@XpXY.3XZ.Z.3X1XyXFXDXcXFXBX%X<.;.-.:. .o.:.XXAXcXeXwXaXiXL.T.W.R.G.R.E.I.hXvXGXbXaX3X",
"7XpXbXGXmXnXnXaXaXE.P.R.R.I.E.uX0XeXMX^.%..X3XA.A.S.3X1XZ.yXDXAXDXAX$X<.;.X. . .| o.X.1.MXkXeXVX0XiXP.L.R.W.G.E.P.D.iXbXHXnXaXuX",
"pXpXnXGXmXGXGXaXiXiXI.R.E.I.dXuX8XqXMX^.@.#XD.D.D.H.Y.A.Z.jXFXAXAXZXoXO.o.}  . .o.o.O.;.NXAXeXzXaXiXK.R.R.W.G.E.P.Y.iXbXGXmXjX7X",
"rXsXmXGXHXGXmXvXiXdXI.P.E.I.I.uXwXeXMX^.@.XX9XD.H.H.H.A.B.pXKXAXFXBX;.| } } |  .| o.:.=.$XVXqXqXlXrXU.U.R.W.G.F.I.I.iXbXHXzXpXpX",
"aXvXbXGXGXHXGXvXpXhXE.P.E.I.iXiX0XqXNX%.@.<.+XD.C.S.H.F.1XyXFXZXZX$XO.{ } } X. .o.X.X.:.%XMXqXlXsXF.U.T.R.E.E.dXI.Y.iXbXHXmX8XpX",
"aXvXGXGXGXHXGXmXuXdXdXP.P.I.I.uX8XeXMX^.D %.#XD.C.K.G.tX1XkXDXZXBXoXF { } |  . .X.X.:.=.%XMXqXlXxXF.I.R.R.W.G.E.I.7XuXbXHXmXpXpX",
"fXbXbXGXGXHXHXbXpXdXI.P.E.P.I.iXwXeX$X&.D =.&.N.C.!.dXZ.<XyXJXZXBX<.D S o.|  .:.O.X.:.-.%XMXqXlXvXrXP.T.R.E.F.dXI.Y.iXbXHXcX8XaX",
"aXvXnXGXJXJXGXbXpXiXI.P.U.I.Y.iXzXeX@XXXA O.*.j.v.C.!.B.2XkXFXZXBX/ G ( :. ...:.X.o. .=.BX5XeXlXlXuXU.U.R.E.G.E.Y.Y.iXbXGXkXpXaX",
"rXvXnXGXJXGXGXmXaXhXI.P.R.U.Y.iXwXeX@X&.A F @._ M.d.v.tX:XyXcXZXOXR x b -.:..... .|  .:.BX5X0XwXvXA.Y.L.K.E.G.E.Y.Y.iXbXnXxXuXaX",
"pXvXnXGXJXGXGXbXuXdXI.U.U.Y.Y.iXlXeX$X^.F S [ ` d.d.k.tX6XyXcX6X~ l H H / :.....| | | :.NXkX8XwXlXrXY.U.K.E.I.dXY.Y.hXvXnXxXuXsX",
"aXvXnXGXGXJXGXbXiXiXE.I.Y.Y.K.iXwXeXeX>.S S @.` M.d.B.:X-XDXJX).T z J H z ,.....| {  .,.BXqX0XwXvX7XQ.U.F.dXI.E.L.Y.iXmXnXjXuXhX",
"aXzXzXzXHXJXHXbXhXD.hXfX3XiXF.hXlXeXNX>.F S +.` d.d.r 6X<X6XFXa.T H J J H R ,... .:.:.3.VXeXsXsXlX7XT.T.G.fXG.U.T.J.fXcXGX9X7XQ.",
"pXvXbXzXHXHXHXmXD.L.fXk.e pXrXhXwXeXVX>.F F ` ` d.0 : /.yX:X,Xs.9 H J P H I / :.:.:.=.<.%XKXmX9XnX7XJ.J.tXfXF.U.T.L.jXzXKX9XhXhX",
"pXvXnXmXGXJXHXmXD.9XfXw q m.aXaXlXeXMX<.D =.*.` e q p h.yX;X,XQ L L P P P 9 N oX,.1.;.<.CX@X+XsXwX7XQ.E.G.dXU.K.T.I.aXxXzX9XhXhX",
"tXxXGXGXGXnXHXzX7XsX<Xe h.p 0XjXsX9XMX(./ oX#X` 0 h._ g ;X:X,XH L J P P P H 9 OXoX>.1.%XCXCXKX8XwX8XdXdXK.T.L.Q.R.F.xXvXmX8XiXiX",
"dXfXGXHXbXbXHXkX4XsXj.f .X:  XzXsXaX5X(.&.%X6Xe q (.! t AXa.Q 9 H P P L P P 9 a.OXXX<.~ E g /.5XLX4XA.Y.U.L.J.Q.G.dXxXjXmX9XaXiX",
"I.dXGXGXnXnXHXkX8X0Xf.g /.a g KXsXaX6X/.(.BX+Xr h.t ^.t ,Xa.Q = H P i.i.P J L s.NX$.# $ ; = * i $X6XaXD.J.Q.T.U.dXtXtXtXaX7XaXuX",
"iXrXbXGXnXmXHX5X8XlXf _ p a p @XlXaXpX|..XMXb.w g   ^.i ].].^ 9 9 L P P J J i.d ~.# k ( v Y U H i '.vXQ.J.Q.Q.H.G.G.fXtXuXuXiXiX",
"iX3XbXnXJXnXHX8X7X0Xf h.p : p j.kXaXpX<X4X+Xh.e f y #.i '.d * * 9 * 9 H J H L H * z b c n Y ^ s.* d Z.Y.L.L.P.W.G.G.gXgXgXhXhXD.",
"sXD.sXGXJXJXbX8XsX4Xp _ _ f.p f qXcXfXm.6X6Xw f g ~.g a o y ].SXSXSXOX* 9 H L = v v v j z R w.e.s.7 f.uXD.E.P.G.W.G.E.dXR.P.Y.Y.",
"9X7XsXnXGXKXlXD.hXD.f f m.4Xf p /.KXZ.V.<Xz.f p -Xb.u 4 ~.PXIXPXIXIXIXIX9 ; = x n n n v b T e 7.d w.q 1XiXP.W.K.R.G.G.T.K.T.L.D.",
"wX9XsXvXJXzXsXD.L.N.f s Z.sXf u g LXc.r b._ y y 6X2Xs '.PXUXUXLXIXIXUXUXIXT = v n n n c v U s.6.6.a.7 l.fXH.W.G.rXG.K.T.T.T.L.Y.",
"9XsX7XpXkXkXiXhXQ.N.f f D.sX Xp a p O O : + < '.2X2Xs .XPXIXIXLXLXUXIXIXIXQ = z c n n v c Y s.w.q.q.w.5 fXU.K.W.dXrXT.T.T.T.L.Y.",
"D.9XrX3XkXjXiXQ.L.S.q h.7X9XzXp   2 ~._ #.t . ^.5Xe.6 8 a.PXUXLXLXKXPXNX7 7 h x b n n Y U U L w.q.6.w.8 A.dXH.E.iXY.J.T.T.W.R.P.",
"D.hXfXfXkXaXI.Q.Q.S.0 j.7XuXeX: $.+.%.$.+.(.%..  Xw 6 8 5 ,XIXUXIXIXIX7 8 7 K ( U v j G ( I I s.9.9.w.6.c.fXG.P.D.D.T.T.T.G.F.I.",
"D.Q.fXfXxXaXW.P.Q.B.0  XpX7Xh.t $.%.@.>.%.%.%.! : q 5 6.6 p.IXCXUXPX;X6 8 7 i R U U h x Q I H s.9.9.9.q.k.xXF.Y.D.D.R.T.G.tXdXF.",
"D.uXtXtXuXiXE.K.hXM.0 6XkX0X: ^.$.$.@.@.E +.%.^.u O t.*Xs 8 NXUXPXIXd 6 :Xp.w.Q R ( ( l d s.d s.9.0.y.6.t.cXH.Q.Q.L.T.T.G.dXiXrX",
"8.B.tXI.S.P.K.G.T.v.0 <XJXp < %.%.>.%.W %.! (.$.u ~.IXPXZXy @XIXIXFXu ].IXa.w.s.s.BX,.; s.d Q d 0.0.9.6.t.tXH.!.!.T.!.H.P.I.rXc.",
"c.8.1XS.S.C.K.C.H.v.r 1X5X: . % 3 ; +.%.+.%.a 1 < NXUXLXPX.X/.LXLX X$.IXIX].q.t.^ ~ ( l w.i.a.s 0.9.q.q.u.tX!.!.!.C.I.C.S.A.k.8.",
"_.c.8.iXC.S.S.C.H.v.f.pX6X<   . - %.  X $.i < UXMX].p.SXIXIX$XLXLXj.VXUX2XO q.q.K R l l s.6.y.0.9.9.q.q.c.G.C.D.B.7XZ.Z.3Xk.e _.",
"=Xn.e M.7XC.A.S.H.V.C.pX+Xu - < UXIX#.+ (.E g ].NX'.y UXg UXUXPXUXCX@X` LXO w s ! ^ I i.w.5.q.7.9.9.q.6.v.D.N.N.6X X[.6Xg.e z.{.",
"*Xl.m.r C.S.N.A.H.B.S.3X+Xp a 1 NXu MXt $.! (.< UXu + p.o y IXUXUXUX< + r.O 6 9.5 6.6.u.9.:XIXx.9.9.q.w B.F.+X_ 1 < E i f m.|.b.",
"_.[.m.m.e <XS.S.H.S.S.1X+Xp a a IX.X.Xg a t ! $X$Xy + 7 >X- OXPXSX^.T ^.4 6 5.7.*XV.9.9.5.cXIX:X9.9.f s A.Z.+.N C ,.W 1 ~.|.g.j.",
").}.b.m.f.M.tXS.B.A.S.1X4X` $.! $.$XE ^.E E < - ! d o d p.7 Q IXIX; ; p.6.6.6 q.IXSXu.7.9.FX~.AX9.0.7.f.F.m.V A F / G ~ ~.h.N.j.",
"`.).{.m.k.f.c.tXB.tXS.Z.+Xq ~.$.%.1 , V N V <.~ ].d + '.'.7 7 IXSX- d ;Xw.6 6 s.SXAXu.7.7.FXu :X9.u.q j.A.|.V F S S D C ~.|.b.j.",
"_._.{.b.=Xk.e tXH.tXF.1X4Xf #.E N & M m m m , %.^.u 4 r.IX,X- BX;X7 SXIX8 6 * d >Xd *X5.7.DXAXAX9.0.e.eX8Xh.C S F S A C ~.`.'./.",
"_._.{.z.n.=Xe.c.V.v.k.k.f.q < V & Z O.M D m m 1 i u u 4 ;X7 o >Xa.o r.w.4 w.d p.BXFXy.7.5 -XLX:X9.5 q f e g A S { S A C ~.`.'.'.",
"*Xx.{.{.x.=Xx.8.7.8.8.f.q ~.t 1 -.D A m A m @.E + /.-Xt.@ o >X.X;X].@ + ~.;X.Xw.AXAX5 0.7.7.V.8.7.w r._ f E F S { S S B ~.*X'.'.",
"{._.x.|.{.=X=Xe.V.B.v.B.b.#X< % C D ..M Z Z ] % g }.l._.e.UXBX^.Q .X/.f. Xl.}.`.4 8.e.q.t.e.q.e.w s 6X}.! V F S { S A C '.=X}./.",
"{.{.z.[.{.l.=X_.=X-XZ.m.qXp 1 E & C D m C C 2 a .X2X2X=X/.~.E 1 V E : +XN.D.H.1XV.0 i ; 9 i 7 d + u =X5X^.G S S { S S B ~.=Xn.[.",
"z.-Xb.z.{.[.`.l.yXxXaXjXg.< +.@.C # # , . % _ /.kXtXxXcXg - XX@.=.V X eX9XD.dXdXgXq - ^.~ T T . - i r.NX%.O.A S { S F B ~.*X{.b.",
"b.{.b.b.[.}.}.h.{.<XN.6X: ` XXE +.^.E 1 +.+._ _ jXB.tX+X_ a , ;.>.E .Xe.4X<XB.H.B.|.< V z l R & l ~ 7 ~.T D { o.} S S C ~.{.[.[.",
"n.b.[. Xz._.`.l.z. Xf.: ` +.<.[ E %.*.^.$.~..Xw n.B.n.e MXCXV , . OXPXg _ |.V.=XB.-X< & XXU l l k ~ d ! C A ..| | { F B ~.*X_._.",
"[._.{._._.*X`.).l..X: ) &X2.4.4.[ ] @.2 < .X>Xd t.V.m.e @X2 ] 3 % +.$.3 p ).z.=Xg.).E * * & l R & R a ; M F F :.X.{ { N ~.*Xx.*X",
"{.n.{.{._.=X=Xl.l./.2 +.3.;.4.4.3.[ +.X % i ].d l.-XN.: X 3 % C <.1 3 (.p |.6Xg.: u ; T ; N k k $ $ ~ , G F -...O.Z D C ~.=X:X*X",
"n.b.n.n.n.=X=Xz.yXh.: > *.2.;.;.3.] 2 X < < _ p j.4X#X` E . D ,.D $ & W ` 8XjXg i & & & & R C N h h G k D F C T , E m N ].}.[.g.",
"b.b.n.n.n.{.x.c.yXz.q p 2 2 &X3.3.+.% . X 2 +._ _ HX_ *.m G 1.-.M -.,.>.g |.7Xg.! l B $ B N V W z x z M D C ! VX5XCX%.a ~.[.b. X",
"[.[.[.[.[.}.{.l.-X}.q q _ 1 % 2 +.$.1 X % V +.a p 5X#.+.1.=.:.M M :./ ,.g 8XxXf.i l l & B z m W N z M m C *.KXHXbXcXzXKXf.j.m.g.",
"[.[.[.}.'.}.).l.l.`.4 r..Xg $.t t g i . % E 2 , t .X$.! 1.,.=.% m O.oX>.p +XB.m.i # # k x U N l = z & , V @XJXF.tXtXrXpX` k.j.|.",
"}.).}.'.'.}.}.).`._.4 4 ;X.X~.d _ g u . # @.1 - p .Xp.- %.] X [ 3 3 V % _ +Xv.m.h.o * ; z Y h h h $ # m ' 4X7XmXcXmXxXxX0Xz.b.{.",
"_.).'.[.).}.'.l.l._.f 4 r.].NX>X).~.a i # %.% - p `..Xg   > 2.' 2.)   3 .Xg.m.c.n.g ^.9 Y j h B z h k 1 /.lXJXmXFXHXmXHXcXe.-X*X",
"{.n.{.[.[.[.[.g.c.|.z.e.f f ~.).t   ~.$.! %.< < e.=X=X[.3 > ) 2.' > 2 3 /.j.{.-X[..Xd K Y v j c U z k V @XbXlXnXHXJXHXnXJXl.*X*X",
"n.x.{.n.b.[.b.g.z.|.<X-Xg.e q : < a +.%.%.1 : p e cX-X4 ` 2.3 ` ) ) XX1 _ yX2X_..X! = h U v v v j G j N 5XbXvXmXzX0XaXvXxX_.*X*X",
"V._.{.[.).[.b.g.2XpX2X4X4X4Xf.  - <.+.$.XX! 1 o r.cX'.  3 <.) V ) @.<.# + -XyX).+ = v v h x z h j c k W 6XuXY.Z.+X4X7XiX3Xe._.*X",
"{._.}.{.).{.[.g.z.m.|.n.b.+Xg.  < E a < < $.#.+ r._.r.- 1 &.<.V C <.+.< + t.=Xf u R j j x $ $ j c c j C [.3XS.sX+X6X4XN.sXf._.-X",
"_._._.`.'.}.[.l.c.n.n.|.z.b.h.: +   t g t t y 7 l.;Xr.+ X - i % % i X O 4 t.1Xf./.~ j b T ^.R x c c j C /.9XM.B.).].).[.n.f.g.z.",
"{._.}.).).}._.c.V.c.c.V.B.|.g.O O l.4Xn.b.[.h.O x.V.x.@ @ f h.r.~._ f O q *XV.k.f g # * - .X^.l z h M F 2 5XkXJXAXZXAXFXg.m.+Xb.",
"n.n.[.[.b.{.x.c.B.1X1XB.1X3XZ.f.1XtXH.T.W.A.3X3XI.U.W.v.k.uXfXtXtX3XiXv.V.fXW.H.r q f z.s s d . + % B F B >.LXGXJXJXGX8Xf.b.[.[.",
"b.b.[.n.n.{.n.c.tXfXtXtXfXtXfXfXtXG.T.T.T.T.P.U.L.T.J.T.Q.R.G.W.W.W.W.dXtXtXdXdXrXhXhXdX2Xr.g _ j.#XD G / N /.yXyXpX+Xr m.|.z.{."
};
