/* XPM */
static char *_1277723308d4522ebab37b6cc921df03B8M42Fd6cXqfjtk[] = {
/* columns rows colors chars-per-pixel */
"64 64 256 2 ",
"   c #020202",
".  c #0B0203",
"X  c #020C01",
"o  c #0A0B04",
"O  c #04000B",
"+  c #0B010C",
"@  c #0C0C0A",
"#  c #030D0B",
"$  c #120A02",
"%  c #13010B",
"&  c #140D0C",
"*  c #1B0E0E",
"=  c #180507",
"-  c #011401",
";  c #0B1203",
":  c #011C01",
">  c #0C1A03",
",  c #04150A",
"<  c #0C130C",
"1  c #081B0B",
"2  c #121404",
"3  c #14120D",
"4  c #1A130C",
"5  c #141B0B",
"6  c #1A1909",
"7  c #080614",
"8  c #1B0D12",
"9  c #1C0C1B",
"0  c #170716",
"q  c #0B1914",
"w  c #151312",
"e  c #1C1211",
"r  c #181619",
"t  c #24070A",
"y  c #221409",
"u  c #240D13",
"i  c #230C1A",
"p  c #270916",
"a  c #211112",
"s  c #231319",
"d  c #26181A",
"f  c #012402",
"g  c #012C01",
"h  c #0B2C0C",
"j  c #0A2507",
"k  c #132908",
"l  c #023301",
"z  c #013B01",
"x  c #04330A",
"c  c #0C3705",
"v  c #143A09",
"b  c #0A2614",
"n  c #122413",
"m  c #132A14",
"M  c #19281B",
"N  c #0C3711",
"B  c #173C1C",
"V  c #223313",
"C  c #161026",
"Z  c #261325",
"A  c #2F112E",
"S  c #163A25",
"D  c #0E2A25",
"F  c #2D392F",
"G  c #0B4D0C",
"H  c #074705",
"J  c #15490C",
"K  c #0C530C",
"L  c #075607",
"P  c #145506",
"I  c #094416",
"U  c #1B4C1D",
"Y  c #174916",
"T  c #0D5812",
"R  c #145313",
"E  c #195518",
"W  c #21491D",
"Q  c #22561D",
"!  c #086709",
"~  c #176B0D",
"^  c #0D760D",
"/  c #13740C",
"(  c #0A6413",
")  c #176618",
"_  c #137111",
"`  c #1A7E15",
"'  c #17791A",
"]  c #0A7919",
"[  c #24671B",
"{  c #24771B",
"}  c #21610D",
"|  c #1D4C23",
" . c #1B4726",
".. c #1A5826",
"X. c #0C5921",
"o. c #234627",
"O. c #245926",
"+. c #2E5430",
"@. c #1E6628",
"#. c #197A24",
"$. c #0E682A",
"%. c #266925",
"&. c #277926",
"*. c #297733",
"=. c #317033",
"-. c #45703B",
";. c #313844",
":. c #385B43",
">. c #505052",
",. c #5A7256",
"<. c #098909",
"1. c #158A09",
"2. c #0A9809",
"3. c #12960B",
"4. c #1E831B",
"5. c #168816",
"6. c #0D9913",
"7. c #199717",
"8. c #0C8612",
"9. c #239318",
"0. c #09A616",
"q. c #19A619",
"w. c #18BA18",
"e. c #0DB10D",
"r. c #25A91C",
"t. c #28B519",
"y. c #1C8723",
"u. c #179628",
"i. c #248A23",
"p. c #2B842C",
"a. c #258624",
"s. c #299D22",
"d. c #279825",
"f. c #33982B",
"g. c #2D8532",
"h. c #2A8D33",
"j. c #348935",
"k. c #2C9836",
"l. c #378F35",
"z. c #1CAC21",
"x. c #1AB628",
"c. c #27A428",
"v. c #29B528",
"b. c #3BB82A",
"n. c #37B638",
"m. c #30AC34",
"M. c #429A2E",
"N. c #1AC71A",
"B. c #0CD912",
"V. c #13D416",
"C. c #1BD51C",
"Z. c #15DC1D",
"A. c #1CDB1C",
"S. c #17D915",
"D. c #0DD10B",
"F. c #23C61C",
"G. c #22D41E",
"H. c #23DB1D",
"J. c #2DDB1D",
"K. c #27DB16",
"L. c #30DA1F",
"P. c #32C51D",
"I. c #1CE21C",
"U. c #17E617",
"Y. c #0FEF0D",
"T. c #23E31C",
"R. c #28EA1A",
"E. c #24F51D",
"W. c #30EA1A",
"Q. c #1BC924",
"!. c #1DD224",
"~. c #1EDC22",
"^. c #19DA2B",
"/. c #17DC2A",
"(. c #27CA28",
"). c #23D622",
"_. c #2AD626",
"`. c #23DB23",
"'. c #2CDC24",
"]. c #25D42A",
"[. c #2CD52C",
"{. c #25DC2A",
"}. c #2CDB2B",
"|. c #35D929",
" X c #39CA39",
".X c #2CDC33",
"XX c #29D635",
"oX c #31DC34",
"OX c #38D737",
"+X c #2FC92D",
"@X c #1AE724",
"#X c #1BEF2E",
"$X c #25E424",
"%X c #2AE324",
"&X c #24EA23",
"*X c #2AEB25",
"=X c #23E22C",
"-X c #2DE12C",
";X c #2BEB2B",
":X c #32E225",
">X c #31E32C",
",X c #34E92A",
"<X c #2AF729",
"1X c #31F82A",
"2X c #26E334",
"3X c #2CE332",
"4X c #2AE937",
"5X c #34E534",
"6X c #34EA33",
"7X c #37E838",
"8X c #39EA3A",
"9X c #3AE537",
"0X c #2AF436",
"qX c #3EFB3C",
"wX c #37F938",
"eX c #46CB3C",
"rX c #42DB32",
"tX c #44E636",
"yX c #41FD3D",
"uX c #49FF3F",
"iX c #45F639",
"pX c #50FA34",
"aX c #3EB345",
"sX c #388443",
"dX c #4C934F",
"fX c #4BB04B",
"gX c #5CAB5C",
"hX c #3BD945",
"jX c #3BCB47",
"kX c #38E944",
"lX c #35FE41",
"zX c #39FC44",
"xX c #2AF046",
"cX c #49D64A",
"vX c #4CCE4E",
"bX c #48E747",
"nX c #42FE42",
"mX c #4BFB45",
"MX c #48F649",
"NX c #52FB4C",
"BX c #4EEB55",
"VX c #56E554",
"CX c #4AF756",
"ZX c #5DFF55",
"AX c #55FD57",
"SX c #53E24A",
"DX c #61FF5B",
"FX c #57DC65",
"GX c #53EF62",
"HX c #69FA6B",
"JX c #6FCE71",
"KX c #887C8A",
"LX c #78F482",
"PX c #A7A0A5",
"IX c #FBFDF7",
"UX c #D9CEDC",
/* pixels */
"IXPX9   O     . O O   O O O   O 7 O + O O O O O O O O O + + O O O O + O O O O O + O O + O O O O O + O O + O O O       0 7 A PXIX",
"KX< X g %.) ) ! ~ / _ _ _ _ _ _ _ _ _ _ _ _ _ _ _ _ _ _ _ _ _ _ _ _ _ _ _ _ _ _ _ _ _ _ _ _ _ _ ~ ~ ~ ~ ~ ~ ~ ~ H &.l - #   C PX",
";.X ' vXMXMXAXMXiXmXmXmXmXmXmXmXmXmXmXmXmXmXmXmXmXmXmXmXmXmXmXmXMXmXmXmXmXmXMXmXMXmXmXMXMXMXnXMXlXwXzXqXwXlXlXwXDXbXBXvX_ : X Z ",
"O l cXmX<X1XwX1X6X6X,X,X,X-X,X-XG.).).G.!.G.`.C.).C.).C.).).`.`.`.).).C.).C.).`.~.A.~.~.~.C.A.C.C.C.C.C.C.C.V.C.B.D.R.qXcXf.- O ",
"  ) NX1X1XqX0XT.XX}.}.].].].).]..X.XoX.XoX.X.X.XoX.XoXoXoXoXoXoXoXoXoXoXoXoXoXoX.X3X.X.X.X.X.X.X.X[.[.[.[.[.[.[.V.;XI.U.mXVXg   ",
"  ' iX<XqXMX[.}.A.A.~.~.~.~.~.~.`.G.G.~.`.G.`.`.`.`.`.$X$X{.`.{.`.`.`.$X`.`.`.{.~.`.{.~.~.~.~.~.Z.Z.Z.A.Z.~.Z.Z.XXQ.~.I.B.NX{ X ",
"  &.iX1XwXXX].{.A.I.I.A.I.T.I.$X$X$X$X%X$X$X%X$X$X%X$X%X$X%X$X*X$X$X%X$X%X%X$X$X$X$X$X%X$X$X$X`.'.'.L.L.J.'.J.J.~..X].I.D.MX'   ",
"  *.iX1X6X]..XB.].`._.`.]._.`.`.[.'._._.}.}.}.}.[.'.[.}.}.oX}.}.}.}.'.oX}.}.}.}.'.|.[.}._.}.'.[.`.`.`.`.).).`.!.U.~.!.$XS.NXg.X ",
"= / zXwXQ.oXV.A.G.G.G.H._._.].[.=X/.4X9XXX2XA.,X-X-X}.-X-X}.-X>X3X-X}.-X-X-X}.-XrX|._.=X4X@X{.>X].'.}.}.`.].].).B.2XH.A.(.iX9.$ ",
". 4.mX;X).'.I.&XK.T.T.T.H.T.$X%X|.|.|._.`.4X{.oX}.}.-X-X-X>X3X-X>X-X-X-X-X}.-X-X/.@X4X3X}.|.|.oX%X$XI.A.A.A.T.&XC.+XG.C.Q.0X0.# ",
"O a.nXA.[.H.B.Z.^.^.^.^.^.^././.J.H.:XR.$X5XoXoX-X-X}.>X>X3X>X-X>X-X>X}.-X-X>X-X0X4X-XL.'.|..XC.].[.[.[.[.].).(.,XOXW.*X`.0X6.O ",
"7 ' mXH.}.S.=XXX*X:X:X,X,X1X,X,X#X@X@X@X@XG.'.tX-X-X-X-X5X>X3X>X3X-X-X5X>X>X3X-X[._.:X:XH.$X4X4X*X<X1XwX,X*XT.T.~.N.D.S.C.wX9.0 ",
"O _ AX`.F.H.MXjXhX X XjXjXjXcXhXFXFXGXCXNXtX;XU.5X-X>X3X>X5X5X3X5X>X5X>X5X-X3X>XtX|._.;X7XkXBXVXcXvXn.n.n.n.eXeXbXcX5X0X!.;X9.% ",
"  ] AXA.G.8Xc.H - o   + % % % + . v E %.M.eXMX@X>X5X>X5X5X3X,X5X>X5X3X,X5X5X5X,XG.wXzXGXFXfX} v #             - z H 7.}.V.@X0.# ",
"  ' NXA.5XbXH   z l : - , < , - t t .   > P +X0X>X5X5X5X5X5X5X5X5X5X>X5X5X5X5X5X$XCXvX) f O . 2 - o < r w , > j - - ! rX.X*X2.  ",
"  ` NX~.7X Xl >.E v j 1 & 3 3 3 , q C C & - 4.CX5X5X>X5X5X5X5X5X5X5X5X5X,X5X3X5X8XVXO.  0 A C 7 e w 9 9 & # j B :.: L +X[.T.1.= ",
". p.zX{.9Xb.j ` ( @.: X D # < w r r w 5 w   &.,X5X5X5X9X7X7X7X9X7X7X7X7X5X5X5X7XrXBX6 0 * d C r i r D # a * X S I J g ).].E.y.O ",
"  p.zX!.9Xb.f _ ~ %.> $ Z & 4 4 , 0 & ; w   @.-X5X7X9X7X7X7X7X7X5X7X5X5X5X5X5X5XoXbX> 0 ; y 7 q = & , # a $ X I T Y g (.].I.#.. ",
"  j.yXQ.tXb.f ' 5.[ X . i s e $ w 9 e 3 a O @.>X7X5X7X7X7X7X5X7X9X8X8X9X9X7X7X5X7XCX: 9 > y 7 5 4 @ q w s 2 : I #.P g x.[.&X8.  ",
"  g.qXC.wXv.- &.! ) h r Z 7 q 1 3 8 8 4 9 + @.(.5X5X7X7X7X7X9X7X8X8X8X8X8XkX8X8X9XCX- 0 5 t 9 4 4 & w 9 i o : Y #.L l w.OX;X] X ",
"  p.qX).6Xv.: =.p.E : # 9 0 r M 3 s a 2 9 + @.].7X7X7X8X8X8X8X8X8X7X7X7X7X7X5X7XhXAXn 0 w u Z r d & 9 9 0 7 j o.#.P x w. X*X5.  ",
"  &.iXH.;X+Xj [ +.h X   . % % = 5 9 4 o e + %.'.8X8X8X8X8X8X8X8X8X8X7X8X9X7X7X7X8XGX+.7 > = 0 @ o   @ # X , f m [ J X.w.+XW.#.X ",
"  &.uXG.&XeXM c X x %.Q k -   X X +   X X   #.'.9X8X8X8X8X8X8X8X8X8X8X8X8X8X8X5X%XbX-.  f X X   X X : f g N g - m v @.D.|.*X#.# ",
"  p.NXC.I.BXS f  .@.h.i.~ =.O.x q w 3 - 5 5 l.wX5X5X5X7X7X9X5X5X9X7X7X7X7X5X5X5XR.mXgX- E V o.J o. .%.@.#.=.Q j X > ..V.L.1X#.  ",
"7 #.yXB.$XOXf.- c N E [ %.a.a.a.y.R +.+.j ! ].AXHXMXZXDXAXAXCXZXAXZXDXZXZXZXZXZXZXlXCXv 8 ;.X.{ y.a.&.*.%...J H   v 9.t.A.0X' + ",
"O ` mXI.=X2XOXp.1 1 , X , 5 n n x X , , : fXJX=...S o.o. . .| W  .o.S o.o.o.o.o.F O.fXaXL - - 3 X X     X X , , R ` z.+XI.,X] O ",
"  { NX$X^.@XkXhXaXf.' ( G H x x f m v P u.gXF = 1   0 % % 0 % % + % + + + + . + D - z hXwXr.M.$.J J H J E %.j.l.c.Q.^..X~.5X/   ",
"@ { MX}..XU.@X{.1X<X%XG.(.+Xv.c.f.n.m.P.zXfX- o.E f 2 y y y 4 6 6 6 6 y 6 5 5 > ! +.X i.MXpXtXxXrX+XF.t.w.N.e.D.2X/.{.XX{.5X/   ",
"  4.MX].OX>X*X_.A.~..X5X9X9XbXtXpX2XkX1XxXfXf / =.b $ t p u 8 d u p u u u y * * / ,.M @.n.`.:XhXoX4X9XkXkXtX8X,X-XH.T.oX{.5X_   ",
"  i.mX!.OX|.:X|.oXoX9X5XoX5X-X>XR.kXkX4XFX-.- 8.-.h 2 u d a % d y u u u u u * * M.j.H P v.0XwXOX0XkXxXoX5XoX[._.|.W.L.|.].3X^   ",
". a.mX/.|.J.T..X=X$X;X*X*X;X*X*X*XBXhXY.HX,.D fX .: 2 y y 3 2 6 y y y y 6 2 2 2 y.k.L P r.N.0X0XE.T.$X-X4X6X;X;XOX%X%X}.`.-X!   ",
". a.zXZ.8X%X$XxX5X-X}.-X5X7X5X.X#XeXtXY.NXM. .H   . p p p Z i Z s a s i i p u 8 , dX| I dX5.eXtX9XtX9XOXOX9X5X}.hX=X@X-XZ._.! O ",
"  a.mXC..X=X;X[.[.|.;X<XN.MX4XbXmXAXDXHXLX) - $ a a y a a a a a a a a a a a a a %   - ..l.m.c.v.P.bXxXxXB.:XtX_.>X=X=X'.'.oX( O ",
"O a.mX).5X`.$X.X4X5X~.~.SXHXvXfXj.=.%.O.+.- . t a u a a a u d a a a a a a a a a a o X h I I H G P H ( v.CX$XI.0X>X3X{.:X`..X(   ",
"  a.mXC.oX{.$X}.@X:X;XCXJXK f X 7 7 + O 7 + A A y 8 a a a a a a a a a a a a a a e 3 @ X X     =   3 - z vX-XS.H.}.=X-X}.{.XXT . ",
"  a.mXC.5X^.;X}.0XT.S.bXdXX B >.q @ y = 4 5 M $ a u a a a a a a a a a a a a a a * 4 e 8 8 p p % D :.V X { MX,X|.}.=X{.%XH.].T   ",
"O a.MXC..X=X$X[.`.:X$XGX&.j O.J B : 6 y 6 o 5 2 y e u a a a a d u a a a a a a a u s s a s u y = b ..J k K cX;XOX}.=X{.}.'.(.T   ",
"  a.mXC.oX=X$X.X7X[.$XHXE x *.~ h   $ t i p Z Z 8 u e a a a a a a a a a a a a a i i 8 * 4 6 6 2 X L { o.g XX#X^.}.=X{.:XH.].L   ",
"  a.mXC.oX{.$X.XkX|.Z.HXR : L / M @ d i Z 9 u p a 8 a a a a a a a a a a a a a a 8 * * 4 4 4 3 4 9 { f.O.f  XE.2X-X=X{.%X{.(.L   ",
"O a.mXG.3X{.$X}.{.>X&XBX+.S *.j.m ; d o < 5 2 6 u u y a a a a a a a a 4 u a u y 6 6 e s a * & 9 8 _ u. .m b.K.5X}.{.{.>X~.Q.L   ",
"  4.qXC.oX_.%X}.=X%X_.uX| R g.i.m o * e 9 e 3 a * * * * a e u a a 9 a a a a a a e e e e 4 e e e . &.y.Q l m.2X}.$X-X`.Z.;Xv.G   ",
"O 4.yXZ.oX`.$X-X-X-X}.uX| T j.i.m - e a & r * 4 a e a a a a 4 a 4 y a * e e 4 e e 4 4 e e 8 8 4 $ #.y.Q l m.3X{.$X-X{.I.%Xv.G   ",
"O 4.yXC.oX`.$X}.-X{.'.nX| T j.i.n - 8 a e r * e a a a a 4 u a a a a 4 a a a a e 4 8 8 e e 4 8 e . ) y.O.g c.=X-X$X-X{.A.`.v.G   ",
"  4.yXC.oX).$X}.-X-X].uX| T p.i.m o 4 u 8 e & a 4 * * 8 8 4 4 8 * 8 4 a e e a e e e e 4 e e 4 e + T h.O.g c.2X-XH.-X{.`.).q.R   ",
"O 4.qXV.oXG.%X}.=X'._.uX| T g.i.m X e a & e 3 e 3 * 4 e e e e e 4 e e e 4 e e e e e * e e 4 4 e % H h.O.g c.{.-X$X$X}.{.C.r.R   ",
"O 4.qXC.oXG.%X}.-X{._.uX| R p.i.m X * a 8 r 4 a e e e w r e d e d a d e e e e e 8 4 e e 8 e 8 4 % z h.W l u.=X-XT.{..X].N.7.R   ",
"  4.qXC.oXG.$X}.%X}._.uX| K g.i.m o e 8 8 r & 4 e e e 4 4 e e e e 4 e e e e e e e e 8 e 4 e e w % l h.W g c.=X=XT.`..X.XN.7.R   ",
"  4.yXS.oX).T.{.=X}._.nX| K g.a.m - e a & e * a e e 4 4 & & $ o   . . $ & 3 3 e e 4 4 e e e * e 0 g p.U g c.{.`.$X)..X}.w.7.R   ",
"O ` yXV.[.`.A.].T.{.].mXU T i.4.n o 4 u & r 3 * e i A + X :   9 , : > n < . C Z w r w e w & w & & g %.O.l s.)..X].&XS.|.v.3.K O ",
"  ` nXV.}.'.A.].T.{.].yXU K p.y.n o * * & r & 4 M 2   c a.f.c.f.k.k.f.l.%.k -   & & & w w w e w + g %.U l s.].{.}.T.V.XXz.3.K O ",
"  ` nXV.[.`.A.].`.{.].yXU T p.y.n o * * & e 3 e o 2 5 +.%.G E | c z G J W m # r & & & w 8 e 8 & . l [ | l s.).{.}.I.S.OXq.8.K O ",
"  4.nXV.[.`.A.`.`.{.].yXU P p.#.m X * 8 8 r 3 e i .   M 1 X 7 + 4 .     X O 7 C e e e e 8 e * &   z E Y l s._.`.}.Z.@XOX6.3.T   ",
"O ` nXV..X`.A.}.T.`.G.yXU K &.#.n   & e w w @ * i   k L _ d.s.7.h.y.&.' ) E > % 9 4 e & 8 * & & o J R N l s.}.{.}.S.@X X3.7.R   ",
"  ` nXV.[.).A.].`.H.G.yXR K %.) m - 4 e w w & 4 X c f.q.2.q.2.2.2.6.z.z.q.r.! : @ & & & w 3 3 w o Y K h g s.}.@X{.Z.{.v.8.7.K O ",
"O ` zXV.[.`.A.`.`.`.G.yXY K %.( m X & * & < @ 6 - K 7.q.v.vXvXFXrXeXvXOX^.[.m.z   @ @ @ @ @ & @ ; U G h l s.}.A.`.A.C.q.8.7.G   ",
"  ` nXV.[.{.H.`.J.G.G.yXE K [ T b   . .       3 7 =.s.[.8X$X*XY.U.#X2X4XU.,XfXz @ @ @ # # . # . ; Q G h x s.}.A.`.I.V.6.<.d.L O ",
"  { nXU.A.].H.Y.!.@XB.bX! Y U H j v J G L ) _ _ , ' (.R.%X.X,XU.2X{.).5X_.oXvX! m o.E ! ^ 1._ ' c ; Z M H z.9XG.E.w.3.5.8.5...# ",
"  &.mX@X~.+X_.A.[.=XT.SX( - n n ' y.j.g.*.%...Y q @.v.3XXXhXXX{.XX5X'.6X}.oXcX<.- c E &.&.&.{ %.( l - - l 3.,XD.N.r.5.1.6.8.K   ",
"  &.NXE.Z.(.].).Q.S.U.OX` : 1 M L H G H x j > o L 7.H.R.T.$X:XR.@X&X@X$XU.Z.*XN., - 1 r M M M n S @   > ) n..XQ.6.4.5.<.3.7.R   ",
"  { AX<XU.Z.~.S.hX[.G.[.m.H 1 , 0 + O O X ; 5 M ` c.|.%XJ.|.|.|.XXhXXXOX.X].OX X*.H f - X - f - o o f T u.v.z.<.<.5.5.<.3.7.I   ",
"- ) VXyX<XU.D.D.B.D.Y.Y.wXN.w.q.4.] 8.7.6.0.0.w.Q.^.@X@X@X@X2X^.@X;X$XT.<XU.@X*X6XN.e.r.7.7.3.2.3.7.0.0.e.e.3.1.7.7.7.1.7.&.f O ",
"  - a.eXMXbXMXtX3X$XT.S.<XI.T.G.R.S.A.T.2X{.2X.X[.[.].].!.].(.N.Q.F.t.F.Q.N.N.t.w.w.v.b.s.d.q.c.z.c.d.y.4.5.5.y.4./ ` ~ E I   e ",
">.  X z R H H H h b M b m N B B G v c k m M M M c h k > j j > > q q 5 r q q q 5 f h x f f f f h > : q 1 > : b N g f g : X + < ,.",
"UX;.O   7     O - X . +     X   7 O O   X X X X X     O         X X X     X X   + %       #     o     ,       . 7 O + O 7 C ,.IX"
};
