/* XPM */
static char *_e0b2ea601fb44e5ffa5da87d39790675Hau9M4KkDs3gjx5[] = {
/* columns rows colors chars-per-pixel */
"64 64 254 2 ",
"   c #171108",
".  c #350701",
"X  c #381504",
"o  c #2A1200",
"O  c #332A07",
"+  c #342D0B",
"@  c #091327",
"#  c #2D2E35",
"$  c #470501",
"%  c #580600",
"&  c #551304",
"*  c #4D1811",
"=  c #6A0100",
"-  c #640400",
";  c #770602",
":  c #691809",
">  c #781505",
",  c #721714",
"<  c #4E3011",
"1  c #703112",
"2  c #463925",
"3  c #532F2D",
"4  c #6E312A",
"5  c #611F23",
"6  c #2B5504",
"7  c #156B16",
"8  c #36721D",
"9  c #2A6A17",
"0  c #1B7924",
"q  c #277A26",
"w  c #357A24",
"e  c #1B5602",
"r  c #534916",
"t  c #5B5718",
"y  c #4D4914",
"u  c #78481D",
"i  c #4D701A",
"p  c #554D2B",
"a  c #6F4B2F",
"s  c #547A2B",
"d  c #78732A",
"f  c #726B2D",
"g  c #101A45",
"h  c #132D50",
"j  c #2E3550",
"k  c #123370",
"l  c #1E316E",
"z  c #6E394E",
"x  c #7E3B66",
"c  c #443E40",
"v  c #3D454D",
"b  c #364A75",
"n  c #714C4E",
"m  c #766E51",
"M  c #505571",
"N  c #734974",
"B  c #6F6C78",
"V  c #504D54",
"C  c #880603",
"Z  c #980403",
"A  c #851706",
"S  c #961B16",
"D  c #95150C",
"F  c #A50403",
"G  c #B91818",
"H  c #AB1711",
"J  c #863011",
"K  c #AE2517",
"L  c #861F2E",
"P  c #BB1926",
"I  c #A81E36",
"U  c #AD1628",
"Y  c #8A3A23",
"T  c #94322F",
"R  c #AC2925",
"E  c #B42623",
"W  c #B12F32",
"Q  c #C6070A",
"!  c #D90709",
"~  c #C80A11",
"^  c #D60C14",
"/  c #C91518",
"(  c #D81719",
")  c #D0140A",
"_  c #E30302",
"`  c #E70705",
"'  c #E51518",
"]  c #E80E0F",
"[  c #CA1A29",
"{  c #EA1F22",
"}  c #C52927",
"|  c #D32C2F",
" . c #E82229",
".. c #E7241C",
"X. c #924F31",
"o. c #B15538",
"O. c #8C7233",
"+. c #9D5F2E",
"@. c #CF5B39",
"#. c #DA623F",
"$. c #982D51",
"%. c #B0314D",
"&. c #913A6A",
"*. c #A93B62",
"=. c #9E1C40",
"-. c #C93446",
";. c #E03B4C",
":. c #885649",
">. c #AD514A",
",. c #87774A",
"<. c #8F6F47",
"1. c #B86954",
"2. c #B46C4B",
"3. c #8F4873",
"4. c #AD4C6C",
"5. c #AB6B72",
"6. c #856E6D",
"7. c #D74C4E",
"8. c #CA6B50",
"9. c #DC5A61",
"0. c #1A8735",
"q. c #0F8C38",
"w. c #24852C",
"e. c #2E852F",
"r. c #51822D",
"t. c #6C8A36",
"y. c #739344",
"u. c #7EA44E",
"i. c #5B9A4C",
"p. c #94873C",
"a. c #8C8538",
"s. c #969256",
"d. c #908A4B",
"f. c #A68557",
"g. c #A79955",
"h. c #AB8F4C",
"j. c #98A958",
"k. c #ABA958",
"l. c #B5A95A",
"z. c #B7B55B",
"x. c #A8AB53",
"c. c #919269",
"v. c #B09468",
"b. c #98B067",
"n. c #A9A767",
"m. c #B6A968",
"M. c #BBB766",
"N. c #B5AA7A",
"B. c #B9B475",
"V. c #A9B06D",
"C. c #C19557",
"Z. c #C8BA5D",
"A. c #D1BB5E",
"S. c #CB896E",
"D. c #C7AB6B",
"F. c #C6BD64",
"G. c #CCBD65",
"H. c #C6BC6C",
"J. c #CDBE6B",
"K. c #C6B769",
"L. c #D3BE65",
"P. c #D3BE6B",
"I. c #DABC6C",
"U. c #D1AA75",
"Y. c #CCBD72",
"T. c #C6BC76",
"R. c #D2BE72",
"E. c #D7BA77",
"W. c #C9A67B",
"Q. c #E0BE7F",
"!. c #BBC774",
"~. c #B7C46D",
"^. c #CBC25F",
"/. c #D2C15F",
"(. c #C7C364",
"). c #CCC265",
"_. c #C5C26A",
"`. c #CEC169",
"'. c #CDC96B",
"]. c #D1C164",
"[. c #D1C16A",
"{. c #D3C96E",
"}. c #D7C469",
"|. c #CCC373",
" X c #CDCB72",
".X c #C8C778",
"XX c #D2C472",
"oX c #D3CA75",
"OX c #D4C37B",
"+X c #D3CA7A",
"@X c #DBCC7E",
"#X c #DAC477",
"$X c #CED179",
"%X c #E2C57C",
"&X c #E1D27F",
"*X c #2C3D90",
"=X c #113B85",
"-X c #573F89",
";X c #1B4799",
":X c #1A428A",
">X c #27499B",
",X c #3A549B",
"<X c #32488C",
"1X c #184AA9",
"2X c #164EB7",
"3X c #1553BC",
"4X c #1A53B8",
"5X c #1554B3",
"6X c #284AA5",
"7X c #3749A3",
"8X c #2254B6",
"9X c #2C54AD",
"0X c #4A5593",
"qX c #6E538A",
"wX c #576597",
"eX c #6C6C91",
"rX c #4A57A7",
"tX c #6C5EA7",
"yX c #506CAB",
"uX c #736BAD",
"iX c #1756C5",
"pX c #0E53C5",
"aX c #7A78CB",
"sX c #935684",
"dX c #875587",
"fX c #89678C",
"gX c #A35E98",
"hX c #D77986",
"jX c #6B84AF",
"kX c #8E8A8D",
"lX c #B4AE8E",
"zX c #8D96AE",
"xX c #A18E80",
"cX c #C9B986",
"vX c #D8BB82",
"bX c #EFAFAD",
"nX c #AFD184",
"mX c #CCC786",
"MX c #D7C986",
"NX c #D8D48C",
"BX c #D9D397",
"VX c #D3CD90",
"CX c #E2C788",
"ZX c #E2D38E",
"AX c #E0DBA1",
"SX c #B1BAD1",
"DX c #99AEE3",
"FX c #B4C3E4",
"GX c #CBD4F5",
"HX c #F5FEFE",
"JX c #FCFEFE",
"KX c #F6F8F8",
"LX c #F0F5FA",
"PX c #EFE3EB",
/* pixels */
"`.`.`.`.`.].`.[.`.`.`.`.`.`.G.[.Y.P.P.P.}.J.}.Z.P.R.J.OXNXN.v.v.cXbX#XL.P.[.G.}.OXP.L.].I.[.`.'.).`.`.`.[.`.].`.[.`.`.`.`.`.`.`.",
"`.[.`.].`.`.`.`.].`.[.`.[.`.`.[.P.[.L.[.G.P.].{.XXR.CXh.< & % $ & u D.CXJ.J.P.Y.|.[.].A.I.P._.(.`.`.`.`.J.`.`.`.`.`.].`.P.`.].`.",
"`.].`.`.[.[.`.`.`.`.`.`.].`.`.P.L.[.`.].J.(.oXF.Y.MXO.& A D G G K - $ f.MX.X|.XX|._.].A.I.P.).|.`.`.[.`.].`.[.`.[.`.L.`.J.`.`.`.",
"`.J.`.[.G.`.[.`.J.[.].`.`.`.`.`.`.`.`.`.`.(._.H.MXX.$ W | ( ' ^ / | A $ <.VXY.`._.(.].].L.].`._.`.[.`.`.`.`.`.`.`.`.`.`.].`.[.`.",
"[.`.`.`.`.[.`.].[.J.`.`.`.`.`.`.).(.[.G.(. XK.CX<.- P ~ ! ' { ! ' ( ( K % v.Q.Z.(.).].].`.Y.`.`.(.[.`.`.].`.].`.J.`.`.`.`.`.`.[.",
"[.`.[.`.`.`.`.`.`.`.].`.`.[.`.`.'.G.[.G.'.).NXv.= E ~ ^ ] ! _ ] ! ] ' ( D Y E.XX`.).].].`.`.|.`.[.`.[.J.`.`.`.`.].`.].`.[.`.`.`.",
"`.].`.].`.`.`.`.`.].`.[.`.`.`.`.`.).`.G.P.J.MX1 Z [ I 9.^ _ ! { ..` ! { ( K 2.+XXXL.L.L.J.`.`.`.`.`.`.`.[.`.].[.`.[.`.[.`.].`.].",
"`.`.`.J.].`.P.`.`.`.`.`.].[.[.G.P.[.(.J.G.%X1.- W -.4.9.) ! ` ` ] ` ( ~ / E 1 mXR.L.L.].`.`.`.[.`.[.`.].`.`.`.J.`.`.`.`.[.J.`.`.",
"[.G.[.`.J.].`.[.`.[.`.[.`.].`.P.R.P.P.`._.%XJ > %.gXx &.~ ` ` ` ] / | ;.P %.5 n.VXR.I.P.`.(.G.[.`.`.`.`.].`.[.`.`.[.].`.`.[.`.G.",
"[.`.`.`.[.`.`.`.`.`.`.`.`.`.`.`.R.XXG.`.+XC.A T 3.M x 4.^ ] ` _ '  .[ 9.7.4.4 m MXR.P.L.(.'.[.[.L.`.[.[.`.`.`.`.`.`.`.`.`.`.[.[.",
"`.`.].`.`.`.`.`.`.`.J.].`.`.`.J.P.[.G.`.MXO.C 4.tX<X3.%.[ _ ^ ! ^  .~ -.3.dXN p MX[.K.`._.).[.P.J.[.`.`.J.[.].`.`.`.`.`.`.`.`.`.",
"`.].`.`.`.[.].`.].`.[.`.`.[.`.[.G.[.).P.vX1 L sX>X>XqX%./ !  .^ ~ ( / I sXqXB 2 cX`.F.'.).J.XXP.].`.`.`.].`.`.`.].`.P.`.[.`.].`.",
"`.[.`.`.G.[.`.`.J.`.`.`.[.].`.`.`.].].}.U.* x qX6X7XdXI [ [ ;.[ / | 9.I 3.N uX# B. XJ.[.(.(.[.P.[.`.`.`.`.`.].`.[.`.`.`.`.].`.J.",
"`.`.`.].`.[.[.`.].`.[.`.`.`.G.`.[.A.).%X8.* qX0X8X7X3.%.[ ;.9.U H } bXxXN 3.uXj n.oXP.[._._.[.P.J.[.`.].`.[.J.[.`.`.`.L.`.`.`.[.",
"`.`.`.J.`.`.`.`.`.[.`.].`.`.[.[.[.).Y.CXo.5 eX>X2X7X*.=.$.*.-.U 7.bXbXgXz N rXh c.+XJ.P.XX`.`.].].`.`.`.`.`.`.`.`.`.`.`.`.`.`.[.",
"`.].`.[.`.].`.[.`.`.`.`.].`.`.`.(.'.H.MXX.4 tX6X2XrX3.=.*.*.%.I W hXbXgXN qX7Xk c.mXJ.P.XX[.).].`.`.`.[.`.].`.[.J.].[.`.`.].`.`.",
"[.`.].`.`.`.`.`.`.P.`.`.].`.`.`.(.'.G.E.J z rX2XiX7X&.$.&.&.%.I U 7.7.L fX<X9Xk c.@XI.P.[.(./.].].`.[.`.`.`.`.`.`.`.`.].`.[.`.`.",
"`.`.`.`.`.[.J.].`.`.`.`.`.`.`.`.H.'.).I.1 &.rX3XiX7XdX$.&.&.*.I G | G $.tX6X9Xk c.@XL.I.`.'.A.].G.[.`.`.].`.P.`.].`.`.`.`.`.].`.",
"[.`.].`.`.`.[.`.`.].`.`.`.G.[.`.`.`.'.E.> N ,X3X2X9XqXN &.&.&.=.P G %.gX*X9X1Xh u.cXL.].(.|.`.G.L.`.].`.`.`.`.[.`.[.`.[.`.].`.J.",
"`.`.J.[.`.].`.`.`.`.[.`.[.`.[.[.J.J.XXE.: 3.,X5X3X1X7XuXqX-XqXsX=.*.gX-X7X6XyXh c.OX).).(.|.`.P.`.[.`.`.[.`.`.`.`.`.G.[.`.`.`.[.",
"`.`.`.[.[.`.].`.`.`.J.[.`.`.`.`.P.P.P.E.: 3.<X5XiX2X4X6XaXtX*XyXuXtX*X7X<XjXLX# n.{.^.`.|.|.Y.Y.`.`.[.`.J.].J.].`.P.`.].`.`.`.[.",
"[.`.].J.`.`.[.J.].`.].`.[.`.].P.L.P.G.Q.1 x ,X5X3X2XiX2X9XyX8X5X6X1X7X=X@ eXLXi.n. X).`.R.R.Y.|.J.`.`.`.[.`.`.`.`.`.`.`.[.`.`.`.",
"`.`.`.`.[.`.`.].`.`.`.[.`.`.`.`.[.[.G.CX1 z wX5X2XiXiX8X2X2XiX8X8X5X1X7XzXM HXlXm.oX(.(.J.[.[.`.[.`.`.`.`.[.`.].`.`.`.`.`.].G.[.",
"[.`.].`.`.`.`.`.[.`.`.`.].J.`.].`.G.[.MX+.3 wX;X8X2X2X2XiXiX3X3X8X1X1X9XGXPXHXVXB.{.).).`.L.].`.`.[.].`.`.`.`.`.].`.[.`.`.`.`.[.",
"`.L.`.`.`.`.`.`.`.`.`.P.].J.[.`.[.).).%Xf.3 eX7X4XpXpXpX3XpX5X8X:Xk 4X:XSXJXJXlXT.)././.].`.`.`.`.[.`.].`.`.`.`.`.`.`.[.`.].`.J.",
"`.`.`.`.[.`.[.`.].`.`.`.`.`.`.`.].[.^.[.U.* qX<X8XpXiXiX5X8X;Xk b ,X6X>XyXJXHXv.T.[./.A.[.[.H.|.J.`.`.`.[.`.].[.[.`.`.`.`.`.`.[.",
"J.].`.[.J.].`.`.`.`.`.`.[.`.[.`.J.[.G.P.CXa z eX6XiXiX1X:Xb 0X@ zXSXk h l jXeXm MX`.L.P.L.`.`.`.[.`.J.[.`.`.G.[.`.[.`.].`.[.`.].",
"[.`.`.`.`.`.].[.[.`.].`.`.`.`.`.`.`.`.J.vXv.X fX7X8XiX;XDXLXKXkXkXGXg l k <X@ c.VX[.P.}.P.`.`.).`.`.`.`.].`.`.`.G.[.`.`.`.`.`.`.",
"`.`.`.`.`.].`.`.`.G.`.`.`.].].`.`.`.J.XXY.vX1 z tX*X8X6XGXHXLXKXLXSX# l k yXj b.mX[.`.[.).(._.).`.`.].`.`.[.`.[.`.`.`.P.`.`.G.[.",
"].`.`.`.`.`.`.[.`.[.[.`.`.`.`.`.`.`.P.OXH.MXv.. fX0X6X>XGXHXJXKXHXkX@ M jXjXv nXOXJ.`._.'._.'.`.`.`.`.`.`.`.`.`.].`.`.`.[.`.`.[.",
"`.`.`.`.`.`.J.`.[.].`.[.`.`.`.`.).).[.R.`.H.MXa $ fXrX:XFXHXHXHXLXwXeXM j @ # VX|.J.P.(._.`.L.L.L.`.].`.`.].[.G.`.`.`.`.`.[.`.].",
"`.`.`.`.`.].].`.`.`.`.J.P.`.J.`.).).[.P.`.`.OXE.& 3 uX*XjXHXHXJXSXB j 3 x p f MX).`.`.J.|.`.L.L.`.[.`.`.`.`.[.`.[.`.].`.`.`.`.`.",
"`.(.'._.`.[.[.].`.`.`.`.R.R.|._.`.).`.`.(.'.[.R.B.  V 0X<XDXHXSXB # z 5.S.u d.@X`.(.J.XXJ.'.`.`.`.`.`.).`._.'.`.`.).`.).`.`.`.`.",
"`.`._.`.`.[.L.P.`.`.Y.P.R.R.J.`.|.`.`.`.(.`.P.J.OXV.# b ,Xl b M # z z * 1.1 D.Y._.].`.`.J.[.).).].`.`.`.`.).`.`.`.`.`.`.).`.`.`.",
"I.P.`.|.`.`.L.I.].].`.`.`.].`.`.`.J.`.`.`.P.P.R.J.mXlX# h b wXv 3 xX6.X a o f.VXG.'.`.G.L.L.]./.).`.`.(.`.`.`.`.`.`.`.`.`.`.`.`.",
"I.I.`.).(.P.P.P.P.`.).).].).].].P.[.`.`.`.P.P.P.[.H.mXnX# v M # B xXm * * * 5 cXXX^.).].P.P.].].`.`.).`.).`.).`.`.`.`.`.`.[.`.`.",
"I.I.J.`.`.`.`.`.).).).`./.A.].`.P.XX`.`.[.L.P.[.J.G.J.NXlX    fXcXm :.4 % , 4 <.MXG.L.}.R.R.Y._.`.`.`.`.`.`.`.`.[.`.`.P.P.`.[.G.",
"I.I.).).(.(.`.`.`.`.)./.).].].[.P.J.`.).L.L.`.`.[.{.G.R.< 1 . 4 * 4 :.& , , a a OX`.L.I.I.XXT.|._.`.`.`.`.).`.`.`.`.`.].`.P.[.[.",
"].`.).^.'.(.}.P.I.P.].`.'.(.`.`.`.`.`.`.L.].J.).Z.G.oXm.r C.X.$ * . $ T >., . * g.+XP.L.G.P.Y.|.'.`.`.`.`.`.J.P.L.J.J.[.`.P.`.].",
"(.'.(.(.(.`.P.P.L.P.`.`._.).`.`.).)._.`.[.].`.'.).J.XXh.J 2.o.> * . & 5.T % X.X f $XJ.).].[.J.[.|.P.`.`.`.`.[.`.].[.].`.P.`.`.`.",
"oXl.z.@X_.'.[.G.[.`.`.|.|.J.P.`.`.(.`.`.`.[.`.`.`.`.+XO.J 8.8.A - 1.4 4 4 , 9.X.r VX_.)./.L.}.G.`.`.[.J.`.`.L.`.[.J.`.`.[.`.`.`.",
"_.M.y.j.!..X|.[.J.(.|._.XXJ.J.).).).R.R.|.J.J.`.P.H.@Xh.J 8.8.J Y 8.8.- - L >.& . ,.+X(.}.A.}.].`.`.`.`.[.`.`.`.[.[.`.`.J.`.).).",
"NXj.9 8 r.r.M.`.].[.`.[.[.[.`.).].[.P.R.`.(.[.P.P.P.#Xh.J 8.8.- J 2.Y = E G = > 2.< T.|.Z.}.H._.`.`.`.[.`.`.`.P.`.J.J.).`._.|.).",
"y.e w 0 e i !.).[.`.J.`.P.[.).).].[.R.R.`.`.].[.I.}.}.L.u 2.1.% X.X.- R / ~ Z S o.4 D.oXA.].'._._.`.`.[.[.G.L.`.[.`.`.`.|.|.`._.",
"7 w.w.w.8 b.$X].`.).`.`.`.[.'.`.`.R.Y.Y.`.).].].`.J.P.%Xu X.8.> X.: ; G } F H E T a m.{.^.^.'.`.`.`.`.`.].P.`.P.J.`.XX'.`._.|. X",
"0.0.e.e.u.!.Y.}.[.`.).).`.J.).`.P.[.P.`.).).].`.`.`.].%Xf.1 C.J & L o.H K C } E T u #X).^.].`.`.`.).`.`.[.J.`.`.XX`.J.H._._._._.",
"0.7 i.nX.X+X@X`.(.[.[.].].G.P.J.P.`.`.`.`.`.`.).).(.[.P.Y.1 o.o.= 8.7.S S = W T . s.ZX[.}.G.XXJ.`.`.`.`.L.`.`.`.J.).(.'.$X@X+X X",
"0 7 i.b.b.b.j.k.M._.).].L.[.R.[.[.`.`.`.|.Y.|.`.(.(.[.H.NXO.J 8.@.#.#.S - - - $ a lXd.h.G.}.J.[.L.[.`.`.`.P.`.`._. X!.~.j.t.t.t.",
"q.q.0 0 q 9 e 6 6 t M.P.[.P.G.`.`.^.[.H.OXR.J.).)./.XXY.OXg.$ 1.#.#.8.A Z E , X.:.f l.Z.^.).`.`.}.G.P.|.J.[.G.'.~.x.t.e.q 0 0 7 ",
"q.q.0.q q q 8 8 6 t.$X[.G.G.[.(.].[.G.).R.Y.P.).^.).).Y.ZXf.% A #.#.o.; ~ G ; 5 v.MX}.G.].{.F.[.J.P.P.J.`.[.{.Z.z.t.i e.0 0 w.w.",
"0 7 9 s s i s t.d.M.'.Y.}.P.{.G.[.J.[.}.XXP.].{.(.'.).K.@X+.A C R o.; F Q / > W.MX].P.P.(._.|.J.P.P.XXY.H.`.J.|.(.z.~.~.u.e.9 7 ",
"9 q nXnX.XmX+X X$X$X).[.R.J.`.`.XXXXoXK.[.Z.].Z.z. X'.`.%XX.D G ; - Z / ] Q J vX[.`.Y.#X.X_.oXXXXX[.J.[.'.`.|.).^.'._.|.'.~.j.j.",
"i b.!._.|.K.[._.G.K.P.R.P.Y.`.|.l.d.|..XZ.'.P.P.p.a.Y.E.vXY H ! ) ) ) ^ ] F +.MXH.Y.MXm.K.`.G.[.|.l.(.`.).{.F._.[.XXJ.P.'.'.$X'.",
"!..X_.`.`.[.).'.[.J.}.}.P.|._..X_.x.t k.oX`.J.J.@Xg.d cXE.: ) _ ` _ ^ Q ) Z 2..X.X.Xd h.XXG.@Xl.a.x.).{.`.(.`.`.oXK.P.{.^.^.(.(.",
"'.(.`.`.'.'.^.(.).`.P.P.J.F.B..X$XNXB.y m.+XP.P.F.MXg.2.D.> ) ` ! ] F Z E A C.+X.Xa.g.{.}.#Xa.d l.@X{.z.z.`.|.|.[.L.].A.L.'.(. X",
"`.[.`.(.(.(.(.(.).{.P.P.J.h.d t t n.NXB.f R.P.L.`.|.cXv.>.C ] ! ` F Z } } ; I.OXB.d  X(.{.O.f mXMXK.O.a.}.P.Y.P.[.`.A.].`.). X_.",
"J.`.P.[.).).).).).`.[.R.R.#XY.B.f   s.BXg.p.XXF.T.mXVX6.: U ~ _ ^ F Q | G J CXmXV.s.!..Xj.f mXVXj.y s.MXP.P.J.J.`.).(.'.(.(.'. X",
"`.`.P.[.].].`.`.`.G.J.Y.Y.Y.R.OXAXn.  n.CXd.T.ZXmXd.p < = } ] ] G F Q ..S - a p p f mXNXf s.BXs.y B.MXY.J.}.XXJ.'.H.).'._. X!.x.",
"`.|.R.P.L.I.P.[.`.'.|.|.XXOXH.m.n.cXd.y VXcXs.y.p 2 p * L | ] ( Z Z ' ^ A : r p p < < lXm cXlXr T.vX|.@X#X|.H.'.`.`.`._._.j.t.9 ",
"_.`.`.P.P.I.P.P.`.G.`.`.k.a.d d <.f d.+ s.,.O + y p + . > H F H - C ~ [ , 5 p 2 r p 4 p a y.2 s.T.n.g.h.k.l.F.F.).`.J.|..Xg.y.y.",
"|.`.`.`.J.[.[.[.`.XX[.M.l.M. X XMXOXB.s.p + p p p X + a O.X.X.1 . : K S , . + + O X 2 2 O < p t O O d.s.p.g.x.Z.}.P.I.}.J.`. X X",
"`.`.`.`.`.`.`.J.[.F.G.`.'.`.|._.`.Y.mXVX#     + + ,.mXmX@XMX#XE.v.X.> >.a m m.lXN.c.n O f BXBXMXB.,.t g.NXoXP.L.P.L.P.L.P.J.).^.",
"P.`.).`.`.'.`.`.).'.{.[.K.].[.J.].oXn.y d cXN.< m.MX.XoXJ.H.}.P.@X#XU.<.O.BXoXOXOXMXBXB.d.a.B.E..XmXB.d d .X[.[.L.P.F._. X`.Z.].",
"L.P.`.)._.(.`.).`.J.`.[.].L.I.[.{.l.t V.NXmXv.m.MXR.`.F.+XH.L./.^.).|.mXm.k.).^.P.E.K..X$Xn.p.z.XX|..XmXd.d H.[.[.G.'.'.~.(.'.]."
};
