/* XPM */
static char *bb400258a39c416ca03e0746be9c55beTm4O0lldwQd6hDZx[] = {
/* columns rows colors chars-per-pixel */
"64 64 256 2 ",
"   c #16140D",
".  c #141415",
"X  c #1C1A13",
"o  c #15141B",
"O  c #1B1B1C",
"+  c #1A1616",
"@  c #0D0D0F",
"#  c #211C1B",
"$  c #31180C",
"%  c #1D2119",
"&  c #24241D",
"*  c #382E11",
"=  c #1A1923",
"-  c #0E132F",
";  c #231E26",
":  c #17252F",
">  c #2B2B2C",
",  c #272627",
"<  c #312E2C",
"1  c #2D3229",
"2  c #36372B",
"3  c #2D2C33",
"4  c #292B3A",
"5  c #322E34",
"6  c #322D3B",
"7  c #3B2532",
"8  c #333234",
"9  c #34333B",
"0  c #38363D",
"q  c #3B3A3C",
"w  c #383B34",
"e  c #2C323B",
"r  c #512F0E",
"t  c #72300D",
"y  c #500D36",
"u  c #433B39",
"i  c #4F352A",
"p  c #69302F",
"a  c #5D1129",
"s  c #3A442A",
"d  c #3D4335",
"f  c #3D4439",
"g  c #3D4837",
"h  c #3A5835",
"j  c #2B682D",
"k  c #4F4A19",
"l  c #41452E",
"z  c #424535",
"x  c #444A35",
"c  c #42463A",
"v  c #464A3B",
"b  c #494D3D",
"n  c #4A4938",
"m  c #49523B",
"M  c #594F32",
"N  c #745829",
"B  c #6E5031",
"V  c #756F39",
"C  c #6F521C",
"Z  c #300F4D",
"A  c #172848",
"S  c #172C47",
"D  c #28384A",
"F  c #3B3A42",
"G  c #363948",
"H  c #2C3D52",
"J  c #263B54",
"K  c #363E53",
"L  c #2A2C49",
"P  c #1E3359",
"I  c #53144D",
"U  c #6F1151",
"Y  c #473C45",
"T  c #543543",
"R  c #692C50",
"E  c #7A0E68",
"W  c #743168",
"Q  c #502968",
"!  c #2D424D",
"~  c #35444C",
"^  c #2D435B",
"/  c #2D4456",
"(  c #334454",
")  c #3A4655",
"_  c #34465B",
"`  c #3B465A",
"'  c #36495D",
"]  c #3B4A5C",
"[  c #384A54",
"{  c #3A5452",
"}  c #2A4665",
"|  c #354A62",
" . c #3A4C62",
".. c #364C69",
"X. c #3D5367",
"o. c #365575",
"O. c #3F6561",
"+. c #4A4E42",
"@. c #464846",
"#. c #544C45",
"$. c #4B5142",
"%. c #4A5549",
"&. c #585649",
"*. c #585557",
"=. c #4A4954",
"-. c #6B534D",
";. c #54694C",
":. c #6D6E54",
">. c #585768",
",. c #46556C",
"<. c #6E566A",
"1. c #4D667A",
"2. c #676866",
"3. c #686775",
"4. c #786B77",
"5. c #6B7578",
"6. c #7B757C",
"7. c #787579",
"8. c #757067",
"9. c #915410",
"0. c #B06B10",
"q. c #875B32",
"w. c #906F31",
"e. c #B26D2E",
"r. c #A75205",
"t. c #CD7712",
"y. c #C6772F",
"u. c #C45D23",
"i. c #8D0858",
"p. c #980666",
"a. c #890C6C",
"s. c #95196E",
"d. c #8B5C49",
"f. c #8F6D4D",
"g. c #A8774A",
"h. c #8A4C70",
"j. c #867879",
"k. c #8B716E",
"l. c #A45F27",
"z. c #75876F",
"x. c #659A55",
"c. c #75CD5C",
"v. c #598120",
"b. c #B18636",
"n. c #EF941D",
"m. c #D68E33",
"M. c #F99A28",
"N. c #E79737",
"B. c #FB9637",
"V. c #EC8D2E",
"C. c #FDA93A",
"Z. c #F1A637",
"A. c #D89720",
"S. c #B68A4E",
"D. c #858975",
"F. c #8A9879",
"G. c #959A7B",
"H. c #8D8A6A",
"J. c #AD8C65",
"K. c #96A57C",
"L. c #9AB17F",
"P. c #B0A17D",
"I. c #90855D",
"U. c #D18F4D",
"Y. c #E79848",
"T. c #F99A49",
"R. c #E89653",
"E. c #F6974F",
"W. c #D5A354",
"Q. c #FAA747",
"!. c #FAA655",
"~. c #EDAC4F",
"^. c #CD946C",
"/. c #EC9C66",
"(. c #DAA76E",
"). c #F2A564",
"_. c #F3B170",
"`. c #8DD575",
"'. c #EAC66B",
"]. c #375E84",
"[. c #5B7496",
"{. c #516D8C",
"}. c #6B6884",
"|. c #6C7387",
" X c #7C7B84",
".X c #777787",
"XX c #667D97",
"oX c #7A7A94",
"OX c #766C8C",
"+X c #5C709E",
"@X c #837C87",
"#X c #8F748F",
"$X c #B16AAA",
"%X c #9A6595",
"&X c #798499",
"*X c #718292",
"=X c #7B92AB",
"-X c #6F8DAF",
";X c #5C86AB",
":X c #7DA2C8",
">X c #878489",
",X c #989987",
"<X c #8B8996",
"1X c #968F92",
"2X c #AB9392",
"3X c #9CAC84",
"4X c #9DAD8A",
"5X c #98A486",
"6X c #9AB084",
"7X c #9EAA93",
"8X c #96B595",
"9X c #A3AD8C",
"0X c #A5AA88",
"qX c #A3B28C",
"wX c #A2B487",
"eX c #A5AA95",
"rX c #A9B497",
"tX c #B5B799",
"yX c #B3B090",
"uX c #8392AA",
"iX c #8698B6",
"pX c #918EA8",
"aX c #AF96AB",
"sX c #8EA2B5",
"dX c #B3B8A4",
"fX c #B0AFAD",
"gX c #C6B298",
"hX c #C6B0AE",
"jX c #D9A292",
"kX c #B8C8AF",
"lX c #99E88E",
"zX c #C9C6B2",
"xX c #89A8C8",
"cX c #99B7D6",
"vX c #91AFCE",
"bX c #ABB6CD",
"nX c #9BBEE4",
"mX c #A4C2DD",
"MX c #9CC5ED",
"NX c #A5C9E8",
"BX c #ACD5FC",
"VX c #A8D3F7",
"CX c #B5D9F9",
"ZX c #AFCFEF",
"AX c #B8E1FF",
"SX c #9EC1DE",
"DX c #D3D4D1",
"FX c #CDD8EE",
"GX c #E3DAF0",
"HX c #C5E3FF",
"JX c #EBE8FB",
"KX c #FDFDFE",
"LX c #F9F9F8",
"PX c #F0EEF2",
"IX c #EBE6D4",
"UX c #C9BAC1",
/* pixels */
"v v v v n v v v v v v v v v v n b u :.eX5XqX5XwX0X0X0XyX9XeX7X8XeXeX7X4X4X4X4X4XqX3XeXF.x m m l n v v v v v v v v v v v v v v v ",
"v v v v v v v v v v v v v v v n b 2 :.qX4XqX3XwX0X0X0X0X9XeX4XeX4X4X4X9X4XqX4X4X4X5XqX,Xx x n x n b v v v v v v v v v v v v v v ",
"v v v v v v v v v v n v v v v v b l z.rX5XqX4X4XwX0X0X0XqXqX4X4X4X9X4X4X4X4X4X4X4X3XeX5X&.l m x n v v v v v v v v v v v v n v v ",
"v v v v v v v v v v v v v v v v m s H.rX5X4XqX6X0XwX0X0X4X4X4X4X4X9X4X3X4X4X4X6X4X3XqX4X:.s x x x v v v v v v v v n v v v v v v ",
"v v v v v v v v v v v v v n v v h x K.rX5X3XqX5XwX3X3X4X3X4X6X6X3X0X3X0X6X6X6XwX3X4X9X9X8.l n n v v v v v v n v v v v v v v v v ",
"v v v v v v v v v v v v v v v x k ;.K.wX9X4X9X5X9X3X4X3X6X6X6X6X3X3X3XL.6X6X3X3X3X3X4XeXH.l m n v v v v v v v v v v v v v v v v ",
"v v v v v v v n v v v v v v v x s ;.9X0XeX0XeXeX9X7X5X4X6X6X6XL.L.K.L.0XL.3X3X3X3X4X5XrXK.x b n v v v v v v v v v v v v v v v v ",
"v v v v v v v v v v v v v v v x s :.9X,XyXeX2XeXeXeXeX4X3X6XL.L.L.0XK.0XL.L.L.3X3X3XK.rX5Xx b x v v v v v v v v n v v n v v v v ",
"b v b v v b v v v v n v v v v x k x.0XG.tXhX-.#X2Xj.eXeXF.6XL.wX0XK.0XwX6X3X3X6X4X4X4X4XeX&.x l v v v v v v v v v z v z z z z z ",
"n v v v v v v v b v v v b +.v x h z.tX2XhXh.p R #X4.2XeXtXwXF.K.wX9XK.3XrX3XK.K.6X3X9X5XeX:.l m v n v v v v z v v z z v v v v v ",
"v v v v v v v v v v v v v b b x m K.aXaXjXR R a W h.2Xk.5XrX3XwXF.rXrXqXF.3XdX4XqX4XrX,XtXD.s z v z v v z c z z z v v v b $.+.%.",
"v v v b v b b v v x v v v v v g m 9X2XjXh.i.U U U W %Xj.>XrX0XG.tX5XF.4XqX3XL.8X4X4XqXF.rXG.2 l z z z z v v v b +.b v +.b b $.b ",
"+.v +.v v v b b v v c v v v v x ;.rXeX2XU i.i.s.s.I R $X1XtX9XrX5XdXfX5XrXkXF.3XF.K.4XG.rX,Xl n z v v v b b $.$.+.$.$.+.$.b b b ",
"v v v b v v v v v v v v b b b g 5.eXhXh.U a.p.p.i.U U #X<.-.$.m ;.2.7X5Xz.F.4Xz.4X4XrXqXrXrX:.b $.+.$.b +.b b b b b b b b b b $.",
"v v v v v v v v v z x v v v x g z.7XgXR i.p.p.p.a.s.I I <.2XzXIXDXz.%.7XkX8XkXdXkXkXqXtXtXtXz.x #.$.$.b b b v b v b v b $.b #.+.",
"z v z v c z z v d z d z z z d d D.eX%XU i.i.p.p.p.E U W LXLXLXLXLXLX%.%.kXeXrXdXtXyXP.tXtXdXD.s m b +.b +.b +.b +.b b b #.+.$.+.",
"w u d z x @.v +.v w n v n m l m 3XzX%XU i.i.i.i.E I W JXKXPXLXLXLXGXH - K.tXtXtXf.N t q.tXdX1X%.%.$.+.$.$.b @.+.v @.n @.u @.u @.",
"m m b +.+.+.+.+.%.v $.b b b m &.rXfXs.p.p.p.i.a E I aXGXKXLXLXKXLXpXJ ,.8.zXyXM q.(.W.e.N dXeX%.v c c f d f d d w w w q q q q q ",
"b m $.+.%.+.+.+.%.v $.m b m m :.dXhXW E p.a.i.s.W Z Q L .XJXKXGXKXj.3.LXD.yXH.b._./.R._.w.I.0Xn w g d w w d f 2 f w w w q q F q ",
"b v b b @.+.$.+.%.g v v m x m z.kXfXW E E i.i.%X$XQ Z Z o 3.KXKXLX>XbXKXdX:.N S.U.U.U.~.b.N gX;.2 f x d f v @.f +.q w 9 q q F 0 ",
"+.+.m { $.%.%.%.%.+.%.$.%.v m D.dX1XQ E a.E E $X%XZ {.$X@XG bXJXKXUXKXfXDXV b.S.U.0.0.R.'.e.J.:.s x c x c +.+.@.@.c 9 9 0 0 9 8 ",
"m m m g v g @.c g g g g m s g F.4X,XW I E E E W Q OXGXJXJX1X1XLXLXDXPX>XH.:.w.m.y.U._.Y.U.m.w.H.s d g g g f q f @.q 9 9 0 F F 0 ",
"f d f d f f d f w f d s x 2 x K.F.yX2X<.I U W W #XJXLXJXKXKXtXIXLXFX1X1Xv k.w.R.m.y.m.Y.T.~.w.0Xn g g v ~ 2 8 w 9 q 9 F 0 G F G ",
"w s w d d d f f f g f g $.s $.rXP.G.dXaX%XU y R pXLXLXUXGXGXPXLXKX<X@ w 2 I.9.0.y.E.l.l.V.!.S.f.M x x b v 2 > 1 8 0 F F 9 9 9 9 ",
"d g ~ g f @.g f ~ +.w g x s 2.rXwXG.yX2X%X%XR a 4.KXJX3.GXY #.KXKX3.GX@.#.J.S.y.e.y.e.U.y.!.S.f.:.1 m ~ ~ 1 > 3 F 9 5 4 9 9 0 0 ",
"d g g d w d f w w x d g d d 8.qXK.0XeX4.R aXh.R 8.IXLX>.<.>.*.2XJXaXKX2.&.B e.y.e._.m.e.V.T.S.f.:.2 g f 2 > 8 8 F 9 6 4 9 9 9 9 ",
"v v @.x c f q 2 w f f v z b D.dX5X2XeX@XI $XI R j.hXKX,.- GXLXj.FXpXfX=.M q.l.r.9.r.y.e.T.E./.f.8.m +.f w 8 G 4 e 4 4 3 3 3 3 5 ",
"v @.v f q d u w c @.w c z $.>XtXdXeXfXaX<.2XR h.2X<.KX,.Z GXJX<.aXaX.X< r /.jXE.e.t m.E.T.E.(.B m 1 1 , ; = : o = = = o . o + . ",
"> 2 2 < & 1 1 , & % X & X 1 &.:.&.*.*.-.T R R y p a 1XGX- bXGX7 2X<.1 $ S.).Y.T._.0.y.!.T.E.).C * O @ . . = = o = = = = O = O X ",
"                & O X # X * n 2 w i i i T 7 p a t q.$ *.o.Q aXk.J.IXkX$ ^.!.V.B.Z.~.r.V.T.B.'.C :.%.% > 4 4 4 6 4 9 9 8 8 w 1 , ",
"    X   + X # #       +   * $.2 s * i i i $ a t t $ i Y ,.1.*.UXUXIXG.$ R.B.B.Q.N.!.t.M.Q.T.~.C G.2.> e 6 4 4 F 4 L 4 > 1 8 1 X ",
", 1 < & , < < , 8 < < 2 2 *.>Xz.H.H.P.V p J./././.R.g.u L sXPXf.g.l.l w.~.C.B.B.Q.V.t.V.V.!.m.q.,X5., e 9 4 4 9 6 9 3 > 8 2 &   ",
"u q q q q q 9 q q q 8 5 F z.>X>X6.2XV C _.).Z.A.A.Y._.f.fXaX7 g.jXJ.q.m.~.A.Q.C.T.T.M.y.Q.!.U.C k.2., 1 O , , = = , % % X @   1 ",
"8 2 8 8 w q 9 0 F F q 9 Y 7.>X X1XD.N S.R.T.n.n.t.e._.d.fXLX-.k.d.a g.m.N.Q.B.B.M.Q.A.V.).U.t p 2 w @ + @ o O . @ . . O % % 2 ;.",
"q q 9 q q 9 F 0 9 0 F 0 @..X X X X-.w._.R.!.M.C.V.e.J.I..XFXhXaXh.d.w.W.C.n.M.M.M.C.A.Z.~.S.B M #.*.1 > > 3 > 5 3 8 3 > , & 2 *.",
"w 9 w 8 8 > > > , , , o , =.@.F @.* S.~.R.E.B.M.Q.U.S.M 2.PXLXk.UXLXf.W.Z.C.M.M.C.t.C.Y.(.M 8.*X7. X*.e 6 6 3 F 3 8 8 3 < , 8 %.",
"O O O o o o . . . o o @ , @.0 9 Y i W.Y.R.E.B.B.!.).g.* ;.LXKXKXLXPXgXr '.m.Q.V.V.!.R.).B k.|.#X.X X*.; 3 6 3 6 ; 3 > > 5 , & < ",
". o o O # = , = = , , = >.@X7. X2.f.W.Z.N.!.B.Q.y.t r H.:.kXKXPXLXLXLXB C W.jXR./._.^.p -.@XuX+X.X6.2.5 6 Y 6 6 F u 6 0 8 , + + ",
"> 3 3 8 9 9 0 q F F G 9  X<X X@Xk.f.N.M.y.Y.V.t.r./.q.k ;.z.JXJXkX8X5X:.B r w.^.^.d.B R j.k.}.#X X7.4.0 3 7 6 3 7 6 7 5 7 & # & ",
"F F q q 0 0 0 0 0 9 F 9  X<X X7.2.f.Z.M.t.Q.Q.r./.y.S.r V V HXx.x.x.c.m z.k.#.-.R -.k.1Xj.#X<X6. X4.7.< ; , 7 > ; ; # # #   @ + ",
"9 8 8 8 9 8 9 8 F F 6 =.@X X>X X8.d.N.Q.t.A.~.0.Y.u.e.(.g.M ;.x.c.c.`.x.;.x.<X2.8.4.<.-.&.&.#.&.#.#.&.# # ; + # + #   # < +.z # ",
"8 8 8 8 6 8 6 e 6 6 6 =.>X X@X7.j.q.Q.n.N.0.A.9.!.E.R.jXg.k x.`.c.c.`.j ;.{ 1 >.@.Y Y u u z l l 2 q #., + # # # # # < # #.-.:.u ",
"3 4 8 5 3 3 3 3 F F G =.oXOX.X3.8.N Y.!.~.A.0.A.Y.E.!.).g.r V c.c.c.c.j : ~ F G Y T Y #.+.$.%.%.*.*.2.&., < < 8 < , < # @.n #.1 ",
"8 8 8 4 3 3 > 3 4 ; ; F *.Y =.F u $ U.E.~.A.Z.A.N.T.Q.Y.q.r k v.c.lXx.{ 5.1.4.3.4.j.j.@X6.*X*Xz.7.7.j.4.< < < 5 5 u < < 7 c c 2 ",
"= o o = o o = o o o @ F Y G G D ~ i f.U.Z.n.C.N.Q.T.V.e.C M S.'.x.x.h |.=X}.#X#X4.4.OXOXOX|.|.5.z.7.7.7.F 3 6 5 , 4 > O   O & & ",
". . o o o = o = ; ; L >.3.3.4.4.5.j.B ^.~.!.n.C.B.B.Q.'.f.V S.R.V k *.#X}.OX#Xj.j.@X XoXoX.X.X6. X6.5.4.Y 3 6 4 G 6 @.O , . > , ",
"3 3 5 8 9 8 F 6 3 4 G .X.X X@X>X*X7.k.B ).T.B.B.B.V.A.b.M -.).T.9.g.k.k.%X$X{.*X3.5.4..X.X4.6.4.4..X}.|.>.; 4 L , : 4 o 3 = 9 9 ",
"5 6 4 6 6 6 6 4 6 F =.>X.X.X X5.oX5.#X-.l.E.E.B.T.~.'.w.M d.jXu.S.J.-.#XoXOX|.|.5.5.5.|..X.X6.6.|.oX<X&X}.L L K Y K G L 4 e 9 G ",
"6 6 6 6 6 6 6 6 7 6 >.@X@XOX|.@XOX@X#X3.B f.(.jX(.(.J.N d.d.jXt jXB k.>X5.<X&X*XuX=X=X=XuX=X=X*X-X[.*X*X}.: J 4 L e 4 L e L e S ",
"L 6 6 6 6 6 6 6 G G >.|.oXXXXXOXoX}.}.>X4.-.&.f.f.w.C f.q.2XjXp hX4.@X1XoX*X*X;X{.[.[.[.{.[.[.+X-X;X-X-X&XD ` ` ) ) ) =.[ ' ] ' ",
"4 4 6 6 6 4 4 4 ; L OXoXuX<XuXiXiXiXiXuX<X>X8.*.-.#.k.k.k.jXi T Y *.5.*X&X&X;X-X-X:X:X:XxXxXvXvXvXxXxXxXvX1. .K ) ) ) [ ( ' ' _ ",
"G G K G ~ G K ~ K K &X&X=X{.[.[.+X[.{.[.iX&X&X7X7XeXfXhX*.*.aXY =.bXGXZXFXZXVXVXVXZXMXnXnXnXcXxX:XxXxX:XvX{.K ) ` ` ` ` ] ] ' ' ",
"S 4 4 4 S 4 e S S D [.*XiXxXcXvXMXAXAXMXVXHXCXZXbXZXsXbXL G &X: - =XvXsXvXvXMXMXVXVXBXBXBXBXVXVXMXVXSXxXvX1.J ] =.] ] ] ]  . .| ",
"( ( ~ ( [ / ( _ [ *XCXmXNXCXCXNXVXMXMXAXMX+X].{.} o.o.A S P : ..A ..} } o.} o.].{.-XMXVXBXVXBXCXCXCXZXZXHXsX .H _ _ ` _ _ _ | _ ",
"( ( ( ( [ ' ' ' / *XFXHXCXCXCXBXVXVXAXBXVX:X-X+X;X+X].P P - ].o.1.1.o.{.{.;X;X;X;X:XVXBXAXVXNXNXMXNXNXZXHXvX,.K  . . . . . .....",
"[ _ [ ' ' ' ]  ...} -XmXCXCXBXAXAXVXVXVXVXAXAXBXBXBXVXBXMXNXSXSXSXSXNXVXNXVXAXBXAXBXVXVXNXZXAXAXCXHXHXNXiX{.D  ._ | | ' | _ | ' ",
"` ` ` ` ` ] ]  .^ ^ ^ ..{.+XxXcXmXNXZXAXAXCXCXCXBXCXCXCXCXCXCXCXVXVXCXCXZXAXCXCXCXCXCXCXCXZXNXmXxX-X{.o.} J ^ | _ _  ._  . .| | ",
"` ` ` ` ` ` ` `  . .| } } } } } o.O.1.[.*X=X=XiXvXcXcXcXcXcXbXvXmXmXcXcXcXsXvXsX:X=X*X*X{.O.X.^ J ^ ^ } | | | |  . ._  .| _ _ _ ",
" .` ` ` =.` ` ` _ K ......} } } / ! ! ! ! J ^ } ^ P } |  .' _ | / ' ^ ' ^ ^ / ! D D J D / / ' ' ' } ......' | _ _  ._ | _ _  ._ ",
"| =.] `  .` ` ` ) ) `  . . .....=.[ ( ( ! ! ( H | K _  .| H J _ / / / ' } { | { X.X.' ' { / ! / X.X.| _ _ _ |  ._ _ ` _ ` ]  .] ",
"| | _ ` _ ) ) ) =.] ) ( K ( ( _ ~ ( [ ~ ] { =.] `  . . .} L S H  .]  .] { _ _ [ ( ( ( [ ] ]  .X./ ^ _ _ | ]  . . .' ] ` ] ] ] ] ",
"K ^ ( ( [ ( ) [ ( ~ ) ) ` ' ' ' ( [ [ [ ( [ ! ! K K K J S - A A H H / ! / ! H D ( ( [ _ _ ^ ( (  .=. . .` | ( _ ] ] ] ] ] ` ) ( ",
"/ / / / [ [ [ [ ~ [ [ [ { / ! D / / ' [ [ [ [ [ ' ( H A A A A A J D D H H ( ! / D D / ( _ '  .X.' ` ( ( ( _ ` ] ( ( ) ] ` ) ) ( ",
"/ / / ' ' { [ [ { [ { ] { =.{ ] | ' ' ' ! ! ! ! ( / S : A A P A J J H H D D H D D H H H J J H / ` ]  .=.=.` _ ( D J ( ) ] ] =.) "
};
