/* XPM */
static char *_6b4ade134044baaa8b7d6586996f716QrU1pCORU6G2mbkg[] = {
/* columns rows colors chars-per-pixel */
"64 64 256 2 ",
"   c #030201",
".  c #0B0100",
"X  c #030A03",
"o  c #0C0A01",
"O  c #06060B",
"+  c #140200",
"@  c #1B0200",
"#  c #130B02",
"$  c #1B0B01",
"%  c #170C0B",
"&  c #071409",
"*  c #141302",
"=  c #1C1302",
"-  c #1C140A",
";  c #19190A",
":  c #080513",
">  c #091915",
",  c #1A1815",
"<  c #170B15",
"1  c #230200",
"2  c #2B0300",
"3  c #230C01",
"4  c #2B0C01",
"5  c #250B0A",
"6  c #320C00",
"7  c #380602",
"8  c #231301",
"9  c #2C1302",
"0  c #281808",
"q  c #331401",
"w  c #341C03",
"e  c #33140C",
"r  c #331A0C",
"t  c #3B1906",
"y  c #261916",
"u  c #371C15",
"i  c #270B14",
"p  c #1C2308",
"a  c #0A241D",
"s  c #1C261A",
"d  c #242202",
"f  c #2B2402",
"g  c #2C2C03",
"h  c #22240C",
"j  c #28290A",
"k  c #3A2C00",
"l  c #332C0C",
"z  c #372606",
"x  c #2C3303",
"c  c #2A3408",
"v  c #333201",
"b  c #32320B",
"n  c #393506",
"m  c #2B2414",
"M  c #2D2C13",
"N  c #2B2B1B",
"B  c #252519",
"V  c #3C2313",
"C  c #332C12",
"Z  c #3C241B",
"A  c #352819",
"S  c #2D3216",
"D  c #363617",
"F  c #161A26",
"G  c #031426",
"H  c #082824",
"J  c #192724",
"K  c #06352B",
"L  c #17322B",
"P  c #123533",
"I  c #232522",
"U  c #242A23",
"Y  c #292A28",
"T  c #382926",
"R  c #2C3625",
"E  c #383624",
"W  c #343336",
"Q  c #2A1E2C",
"!  c #440B00",
"~  c #451606",
"^  c #531800",
"/  c #451B15",
"(  c #481719",
")  c #671600",
"_  c #452704",
"`  c #572804",
"'  c #453504",
"]  c #452918",
"[  c #542A17",
"{  c #45351A",
"}  c #593617",
"|  c #553503",
" . c #6B3209",
".. c #452A24",
"X. c #473627",
"o. c #543B27",
"O. c #453B38",
"+. c #553B35",
"@. c #562E2A",
"#. c #603B28",
"$. c #2D432B",
"%. c #534813",
"&. c #704D14",
"*. c #4C4529",
"=. c #564628",
"-. c #4B4538",
";. c #584937",
":. c #555236",
">. c #674929",
",. c #664A37",
"<. c #685438",
"1. c #75583A",
"2. c #74502B",
"3. c #796732",
"4. c #73651F",
"5. c #453F41",
"6. c #494545",
"7. c #5B5549",
"8. c #534F52",
"9. c #6A5847",
"0. c #765A47",
"q. c #6C5650",
"w. c #7A654A",
"e. c #796657",
"r. c #706957",
"t. c #786A66",
"y. c #7C7466",
"u. c #7A797B",
"i. c #68696D",
"p. c #606370",
"a. c #3B4757",
"s. c #A53F08",
"d. c #873A0B",
"f. c #8F4E16",
"g. c #AC5913",
"h. c #9A7908",
"j. c #947211",
"k. c #AE7210",
"l. c #8D582F",
"z. c #93702F",
"x. c #B76826",
"c. c #A96A38",
"v. c #B77739",
"b. c #AE712F",
"n. c #A95820",
"m. c #CB560D",
"M. c #C86608",
"N. c #D56807",
"B. c #D86A16",
"V. c #CB6F19",
"C. c #E36E16",
"Z. c #C86A22",
"A. c #CA762A",
"S. c #D57828",
"D. c #C87938",
"F. c #D76F2C",
"G. c #E17A2B",
"H. c #DB5D22",
"J. c #866847",
"K. c #896A55",
"L. c #8B7558",
"P. c #947B5C",
"I. c #9B7C5B",
"U. c #977855",
"Y. c #93744A",
"T. c #A6784A",
"R. c #A17D5B",
"E. c #A67C56",
"W. c #B3764D",
"Q. c #897867",
"!. c #9B7D63",
"~. c #957B67",
"^. c #8A7975",
"/. c #8D706B",
"(. c #A87F64",
"). c #B67F60",
"_. c #885B47",
"`. c #C87C44",
"'. c #A68315",
"]. c #9A8330",
"[. c #A78529",
"{. c #AD8437",
"}. c #9E8216",
"|. c #D18338",
" X c #E08B38",
".X c #9D835C",
"XX c #9B8658",
"oX c #93824D",
"OX c #A38456",
"+X c #A4845C",
"@X c #A9845C",
"#X c #A48A5D",
"$X c #AA8556",
"%X c #B68456",
"&X c #A9884C",
"*X c #9C8364",
"=X c #94846C",
"-X c #9D846C",
";X c #9A8868",
":X c #898578",
">X c #9D8A73",
",X c #988877",
"<X c #999278",
"1X c #8E876B",
"2X c #A48463",
"3X c #AA8663",
"4X c #A48A64",
"5X c #AB8B64",
"6X c #A3856A",
"7X c #A48B6B",
"8X c #AB8C6B",
"9X c #AA856D",
"0X c #B48967",
"qX c #A99368",
"wX c #B2946B",
"eX c #A48B73",
"rX c #AB8D73",
"tX c #A78A78",
"yX c #AC9274",
"uX c #A7937A",
"iX c #B29578",
"pX c #B48D7C",
"aX c #BFA16F",
"sX c #CB854C",
"dX c #C29772",
"fX c #607286",
"gX c #7C8083",
"hX c #968985",
"jX c #989388",
"kX c #9B9796",
"lX c #8C888C",
"zX c #A68B83",
"xX c #A89686",
"cX c #B49985",
"vX c #A99995",
"bX c #B6A28E",
"nX c #B2ADAD",
"mX c #9C9CA6",
"MX c #C6B8B6",
"NX c #C1A895",
"BX c #CAC1AE",
"VX c #BCCCD4",
"CX c #D4CCCA",
"ZX c #E7D8D2",
"AX c #F1E3D9",
"SX c #E9E8E8",
"DX c #FEFCEC",
"FX c #FAF4E9",
"GX c #EBF7FA",
"HX c #FCF4FC",
"JX c #F5FEFE",
"KX c #FEFDFD",
"LX c #F9F7F4",
"PX c #F2EDF0",
"IX c #DAE5F0",
"UX c #AFB5C1",
/* pixels */
",X,XQ..X8X5XE.@X0XU.8X:..   J L K P K K K K H L H O J , , , I B N X.C M c p v d . 1.2X!.rX!.tXe.. = y B Y U B N N M C n k v v v ",
"9.uXbX*XU.+X@X$XE.3X*XQ.E   > J K K K K K P L H > ,         o + + ; M D S *.=.o = J.yX6XtX(.tX;.. , U U U I s N m M C l n v v x ",
"A ;.L.>X7X+XR.5XU.5X!.uXL.#   > K K K K K L L a > X     % .   . .   # ; c 1X<X= z ;XyX6X(.6X6Xr . B Y U I U B N N C C l v v v v ",
"#   = w.iXwXU.+XwXR.2X-X<X9.o X a K K K K L & &     % % - E y 8 $ . .   * y.Q.o <.yX*XP.-X7XP.$ o I T I B Y Y B m M C l v v v v ",
"    . 8 9.qX4XXX8XU.4X!.-XeXX.  & K H a L >       6.7.y...<XvX=X/.X.5 $   . # = ~.iX~.!.7X;X3.. - Y Y F Y Y U s N C l l v v v v ",
"* ; o . = <.;XiXU.8X2X2X!.7XP.8   a L a &   X S r.xX<XxX9.{ >X~.,XbX,XD   . . 8 ^.uX-X-XeX1X%.  s Y Y J Y U , * m M C b v v v v ",
"N N p o   = :.yX*X4X*X8XR.2X8X<.  & J , X   -.y.,XQ.eX-XcX] J.iX-XK.>XxXQ.m + 3 +./.zX-X<X1X8 X I Y J Y Y y % % B M l b v v v v ",
"S E S h o   0 <.cXL.!.2X3X5XI.iXE   X *   E ,XxX<X*X7XP.6X2Xw U.rX~.-X-X-X=XT + + ,.zX=X=XQ.o o J I Q Y T , + - j M b b v v k v ",
"j M E S h * X   *.bX-XP.yXR.R.2X=X. o . m xX~.eX*X*X7X4X2XR.U.U.3XY.wX;X;X-X>XX.@ + 9.zXhX7.o , Y F I Y y 5 y 0 m l b c v v v k ",
"D D M S S h * X * :.=XuX!.R.0X9XjXm . 0 >XeX-XP.2X2X3X@X@X+X+X+X#XXXXX4X;X=XuX~.u + + /.hXO.  , Y I Y y i y r 8 j M b x g v k v ",
"v g g D E S > X     :.,X-X!.2XrXq.r . e.bX;X*X8X+X2X2X3X3X@X2X+X&XqXY.#X4XXX7XzX/...+ 5 hXO > Y J I B i 5 Z u 3 z C b c v v n k ",
"' ' v j c s S U &   X -.,XuX6X!.q . ;.cXL.2XI.wX#X@X@X+X@X3X3X3XI.XXwXXX.X.X;X*XcXK.5 . T O < J I B y i e / / 4 z j b c x v v k ",
"_ k k n D S L a > F     O.,XcX;.+ @ uXtX!.4X#XE.@X@X#X@X@X+X3X2XU.>.rX.X#X4X4XXX!.9X0.$ . < Y U B - 5 u ~ ( ~ 4 z l c c x v v v ",
"z w f v D R s a H L > O   O.Q.9 + 0.uX!.*XwX@XU.$X@X@X+X+X2X2X(.tX} K.7X4X;X#X4X+X2XyXo.$ o W W B $ 8 / ( ~ ! q z v c x x v v k ",
"4.%._ f p p L L P H F H     N . q eX!.7XP.2XOX@X$X$X#X@X+X2X2X6XzXq.9.eX4XXXXX5X.XwXU.Q.0   - B ; 8 r / ~ ~ ~ 6 z g c x x x v k ",
"[.[.z.4.%.x * & J J > X O +   + e.P.eX*X8XI.3X.XOX@X@X#X4X2X2X;X6X(.[ tX.X4XXX#X.X5X+XyXL.  - o $ 9 / / ! ~ ~ 2 f v c x x v n k ",
"k.h.'.'.[.].4.%.d d # + $ 5 . T uX7X-X*X*X2X3X+X0X3X+X+X+X.X.X.X.XyX<.>.wXqXY.#X.X+X2X6X-XX.@ @ u [ e ( ~ ~ V $ x x c c c x g c ",
"'.'.h.h.h.}.].}.z.3.,.w r y @ V 0.L.eXrX2XI.(.8XI.R.+X2X2X2X4X4X.X#Xw.z.qXOX#XOX#XI.8X*XeX-X+ ] ~ ! 7 ( ] 4 A $ n c S c x x C D ",
"'.h.k.'.h.h.}.j.{.].U._ t t u e + z 0.-XeX6X!.I.8X5X+X+X.X.X.X.X;XXX#X.X#XoXwXOX5X#XI.-XpX,.3 r 6 } 2 2 [ V 8 y M g M D n g 8 @ ",
"b.f.j.[.}.}.}.}.}.z.oX| 4 V u e V 3 + z 0.(.rX2X!.(.+X2X7XqX#XI.2X.XwX#X#XE.5XR.3X2XP.iXw.+ { 9 w z 4 4 4 ] @ u { l f f 8 8 ' 2.",
"(.z.z.z.j.h.h.'.h.b.{.&.4 / t u r ] ] q @ 4 ,.9XrX9X8X2X.X.X4X5X.X4X8XI.5X3X+X+X+XI.rX!.4 q r ..{ . e.e.1 u e 4 4 z d o w 4.].].",
",.<.z.{.[.j.j.}.h.[.{.4.4 _ t u 4 9 r V t 4 4 q 1.K.9X8X2XI..X2X2X4X4XI.R.5X+X3X2X7X6X] 4 X.5 Z + m ZX^.i Z u @ e + f 3.&X].z.{.",
"+ r ' 3.].h.j.h.j.[.z.| 1 t t u e 4 4 u ] ] r q + w ,.U.rXwX2XI.6XI.2X2X0.2X2X2X9X9X>.@ ] e ..%   mXKXq.i ( @ 9 V w.XX].z.].}.&.",
"m f * d &.4.&.j.{.z.z.4 + q V A ] 3 + @ e u r u ] 4 + 6 =.L.8XrX7XU.8XrX} U.9X6XuX0.1 V r 5 ..+ p.KXLX/.i Z e 1.~.e.3.oXY.2.' f ",
"D c g d 0 f %.4.z.wX>.@ =.] w r Z + /.+.+ u u y A r V w @ q >.U.6X6XeXrX0.1.rX!.-X4 r 8 Z Z + O.HXKXDXy.+ z %.qX9.X.w.=.# @ 9 9 ",
"c c x n v g f _ <.;X{ @ e.X.9 r Z 1 NXAX7.+ 5 0 A 3 0 X.] 3 + 4 ,.K.~.6XJ.0.9XzXV r e ..Z $ + nXHXKXFX9.0 d oXoXD 0 C = + + + 9 ",
"c c x x x x g d A ;.$ 0 ,Xe.0 V e u /.HXLXhXy . # B T $ V V ] q @ w <.cXK.@.tX9.4 u u - - + $ kXHXHXLXo.= 0 z.n 0 f j . . 4 + @ ",
"c c x x x b S N 0 % . X.hXxXV r Z 1 t.KXLXKX6.    # % 8 Z r r / z 1 K.uX~.,.NXtXy u Z 8 +     kXHXHXSX0 $ n n = g b A $ 1 ,.} 1 ",
"p c b c b D c p N o . r.,XxX<.2 V 3 q.KXAXKXW & mX^.. + . u 4 u 9 { cX>X/.o.Z ~.t.5 5 % nX8.-.LXHXHXmX. j w.* j D b 9 @ | sXb.` ",
"* p D D c c c c h * . ,XtX~.tX7 $ Z u FXKXKXW X nXPXSXnXq.@ u u q Q.Q.Q.$ . 0 q.vXO.+ o CXLXSXKXKXHX6.. =.r.p D l { 3 @ l.{.Z.k.",
"o $ j j c c c D p X f <X~.~.cX1.9 0 A DXFXPXmXR GXSXKXKXCXu u 5 o.xX1XxX..;./.O.-.^.y I Y DXKXSXKXvXy # *.:.y Y A ] e 2 c.x.k.C.",
"o $ u D n v x c d X :.uXtXtX(.(.t 0 + nXKXKXJXSXJXJXPXKXt.y 5 u >X,XuX..] ,X,.+ @ /.+.. B q.PXKXBX0 8 . S M 0 N X.8 1 2 D.B.B.g.",
"V . - C k ' k l ;   :X=XtX(.R.5X0.e + 7.LXLXJXGXJXJXGXZXy e e 0.zX:X~.z + 2 _ ,.[ @.pX2 Z @ ..i.+ - 0 + X s N d D l + _ A.B.H.m.",
"1.$ % A _ _ k ] & X :X1X9X(.@X3X(.] 9 y jXLXLXSXSXLXLXX.5 t ( tX>X=XeX@ L.t 2 0X` >.pX0.1 T T < Y $ ..Z : J B l C g . _ V.M.H.H.",
"#Xz . j k k z { o , ,X;X(.(.#X#X~.Q.3 A * jXCXLXLXCXO.@ ] @ rXrX*X3X+X~ 2.Y.l.0X7 J.zXzXi y W O A 8 0.=.X I B A E Z # _ |.M.N.B.",
"%X` + h ' k g l X E <X+X(.@X$XXX7XiXo.8 $ + u +...+ 9 u 3 J.4XL.+X0XY.Y.2 2.pX` q pX(.cXe.@ ....$ X.iX>.  B T I A N . w sXV.M.M.",
"v.&.. = n v D j   :.yXXXE.%X#XXXXXXX<Xn t ] e 2 2 @.( ~ q Y.qXXX7X.X*XyX{ + r + 9.cXK.R.dX` 7 ~ t L.aX%.. y W u N D o 3 z.D.V.M.",
"A.f.3 = c x D d   r.qX&X%XE.@XXXXX#XqXL.@ 2 ( ( [ e 6 4 K.XXXX;X4X.X8X*XuXo.= *.<X;X3X@X%XT.! 7 _.iX5X&.# - Y T D D 0 . [ l.[.{.",
"A.n.@ = b c E ; o y.4X&X%X).4XXXXXoXXX7XK.7 ( e ( 7 / [ I.4X#XXXOX+X3XU.8XbXL.1X;X1XuX7XU.0X&.>.rX*X8X<.+ . , N j x d o @ ~  . .",
"A.f.@ = E p R * o Q.@X$X%X$X4XXXoXqX#XU.pX0.@ ( e @.@ K.rX4XXX#X2X+X2X4X4XU.8X7X;X4X*X;X7X;X1X;XrXK.bX0..     h D x n * . + + $ ",
"|.f.+ y h $.T   o hX+XT.%X0X2X*X#X#X2X*XrXeX9.+ y 3 ,.tXrX7XR.*X=X=X-X-XOXOXT.&XT.$X3X;X1X:X<X<XeX~.hX7.%     & c c x d d o . : ",
"v.f.2 , , p   # % hX2XE.).0X*X-XOXOX2X7X~.>XxXq.5 A e.,X~.!.6XeXxX1X=X7XyX0X%X$X%X$XXX.X;X1X:X:X.X(.vX8.# -.B   X p D D h s Q : ",
"W.2 + y * o   . % ,X8XE.).).6X-X2X0X!.!.eX*Xy.9.D ;.hXcXtX-XK.1.X.{ { =.<.1.Y.4XwX3XR.OX@X5X+X+XXX;XvX6.  Q.r.> O O i D S R Y & ",
"! 2 .   # . . m < ^.uXR.).).(.-X2X6X6X*XP.{ . o   8 <.0.] @ @ @ 1 1 1 1 @ @ @ 9 ,.J.6XwX5XU.T.OX&XP.jXY . ,XjX8.: : + $ N R N X ",
"@ + : O o { ;XV % y.uX2X9X).+X4X7XJ.bXL.3 @ + @ 5 @ + + + 9 ..1.n.g.g.f.&. ._ 4 @ $ w ,.P.yX8X+XXXL.:Xh 8 -XjX6.+ i 2 @ ; B * X ",
". . O Y L.;XiX=.+ r.xX*X0X(.+XXXrXP.2X_ @ _ l.Y.l.>._ + + { 9.2Xv.v.D.D.D.W.c.l.&.~ @ + _ <.~.uX8XqXQ.o ] tX^.5 + 0.2.2 . %   . ",
"o   W gXeXoX5X1.. 7.uX.X9XE.OX#X7XuX} + } E.E.).).0XR.>.3 . . l >.&.f.c.D.Z.Z.S.G.D.n. .1 @ T e.P.yX7.. ,.zX/.+ _ &X{.^ + O o + ",
"y , 8.u.1XqX#XJ.  :.jX!.0XE.+X#X1XoX4 ! T.W.c.` 7 1 7 =.0.*.o . . + e l.W.v.x.B.m.V.A.sXc.} 6 @ >.P.A o 0.cXq.@ 4.v.b. .1 + i u ",
"_ z % < < t.uXL.X s 1X7XE.0X3X(.yX2.@ T.x.`.^ 2 hXvX+.+., -.9.7.D $ T ^.X.+ ~ f.|.V.M.N.B.F.g. .@ 3 + l .X>XK.@ 2.b.{.l.2 1 2 l.",
"' 9   : O Q ,X,Xc X y.;XwXY.9X6X2X6 6 W.`.f.7 Z PXKXq.PXCX6.W *.m 0 I : 8.ZX9.2 k.M.N.N.N.N.F.n.2.+ . ;.7XiX9.2 f.b.k.x.7 ! f.b.",
"l +   i @ + w.yX*.  -.<X9XE.5X9XK.2 c.c.Z.) ( 1 IXPXt.ZXPXLXy.C Q.kXq.i.HXPX@.7 f.V.N.N.C.V.V.sX0.  # Q.6XiX1.2 &. Xk.S.s.f.|.k.",
"; . m e.[ 1 ` wXw.* = Q.eXyXE.0X1.@ T.`.x.! [ y kXKXi.UXKXKX:XZXFXFXnXnXHXPX@.^ ) S.M.M.B.V.g.W.r   6.<XP.pXK.2 )  XM.N.H.H.N.N.",
": . 1.0Xl.~ 2 @XyX0   O.vX*XT.wXo.2 v.D.f.7 ... lXPXgXUXIXKXy.ZXDXFXjXkXHXNX5 ! ^ n.Z.S.g.Z.D. .+ o 7.kX-X*X9X7 ! k.B.M.H.H.B.C.",
"< @ W.v.v.^ 2 I.iXe.$ ; r.uX@X0Xt } G.Z.d.7 u < O.PXmXUXJXJXy.ZXDXFXkXBXvXi 2 [ ^ D.A.D.x.%Xl.@ +   s t.xXQ.pX[ 7 ) x.D.D.`.Z.k.",
"2 ~ `.g.|.^ 2 P.tXzXy . ; :X5X5X0 t Z.G.f.4 I nXt.i F fXIXGXt.DXFXFX-.s O.ZX+.7 [ W.d.T.sXl.q + = .   A y.<XhXL.1 1 ` l._.l. .7 ",
"7 d.D.k.'.| @ Q.zX/.B   X -.P.rX% _ G.B. .4 T KXHXCXa.G P F y O.R s U 5.HXHXzX1 _.l.7 l.J.w + 8 $ A .   -.jX:XhX..@ + + 4 @ . + ",
") m.M.V.b.z o gX6.%   *   X *.*.  z Z.G.f.+ hXHXFXJXfXVXIXnX7.7.mXVXJXp.AXKXMXe ~.1 / 0.@ + o l { A $   o 6.jXlXjXI . +     : O ",
"H.B.M.V.z.f X Y : . . =     ; o I 9 g.G.c.@ BXHXFXSX8.GXGXJXlXCXSXLXGXkXnXLX^.+...5 ..3 o . p D l V j -   & 7.<XlX^.8.y o , G : ",
"H.m.S.|.&.* X O   o y E s X &   X + x.D.l.^ AXFXFXNXlXGXIXJXgXMXKXGXKXkXkXMXi t.+ + - . = s S j C C 0 B X   ; 7.xXzX^.^.>X,.y T ",
"N.m.|.c.z   X X & A S S s & > X O 1  .n.`.2.2.FXDXt.nXKXJXJXlXMXSXKXKXAX7.A ^.% %         S D D l D h y s X X # 9.hXzX,XyX2X,.i ",
"G.v.l.} +   X * p E M j j p > > > . 7 W.D.b.~ 6XAXt.AXPXGXGXgXCXKXKXFXCX@ r.A $     I - h D g n 0 E M B J , X   . q.zX~.OXwXl.8 ",
"f.} r + . . # f p D S M S s H &     1 &.x.sXT.t 0.~.DXFXKXJXu.IXHXHXNX$ w.<.+   0 8.6.  9.:.f f b D s U Y s ; *   . @.~.#XqXtX^.",
".     : < 5 w ' d c c S M s > O O 8.+ 1 n.D.c.R.3 ;.NXFXKXJXu.IXZX/.2 _.1.+ + ;.:X:X; X <X%.' ' D c ; B Y J M p ;   . $ { w.hXlX",
"X   : G F u k k v c c S h p H > X u.e.2 ) x.c.R.-X{ q z 5.i.Q W i ( /.K.@ $ w.>X<Xr.  9.BX' z ' g S N R H H S s , , :   * * y Q "
};
